<svg xmlns="http://www.w3.org/2000/svg" width="300" viewBox="0 0 865.76 682.89"><path d="M715.23,166.28c-12.05-27-33.47-49.78-57.67-70.63-54.89-47.27-126-71.43-198.63-75.26-74.44-3.92-152.32,11.49-214.14,55s-104.72,117.73-99,192.05c5,65.13,45,128.66,25.63,191.67-7.13,23.23-22.08,44.44-24.13,68.54-5.68,66.74,64.95,96.84,118.2,111.22,78.71,21.28,163.35,28,245.1,22.31,43.57-3,88.8-11.58,129.63-28.29,61.59-25.19,99.34-74.58,67-138.3-19-37.49-35.47-69.1-28.12-113.29,8.63-51.88,38.11-98.54,45.11-150.76A116.52,116.52,0,0,0,715.23,166.28Z" fill="#6B9EA4"/><path d="M715.23,166.28c-12.05-27-33.47-49.78-57.67-70.63-54.89-47.27-126-71.43-198.63-75.26-74.44-3.92-152.32,11.49-214.14,55s-104.72,117.73-99,192.05c5,65.13,45,128.66,25.63,191.67-7.13,23.23-22.08,44.44-24.13,68.54-5.68,66.74,64.95,96.84,118.2,111.22,78.71,21.28,163.35,28,245.1,22.31,43.57-3,88.8-11.58,129.63-28.29,61.59-25.19,99.34-74.58,67-138.3-19-37.49-35.47-69.1-28.12-113.29,8.63-51.88,38.11-98.54,45.11-150.76A116.52,116.52,0,0,0,715.23,166.28Z" fill="#fff" opacity="0.7" style="isolation:isolate"/><polygon points="428.86 101.64 458.65 110.58 428.86 120.13 428.86 101.64" fill="#6B9EA4"/><path d="M428.86,141.12a.28.28,0,0,1-.28-.28v-41a.28.28,0,0,1,.56,0v41A.28.28,0,0,1,428.86,141.12Z" fill="#88BE9E"/><polygon points="360.47 252.1 370.63 264.97 487.09 264.97 497.25 252.1 360.47 252.1" fill="#6B9EA4"/><polygon points="360.47 252.1 370.63 264.97 487.09 264.97 497.25 252.1 360.47 252.1" opacity="0.4" style="isolation:isolate"/><path d="M491.15,235.17H369.27A56.94,56.94,0,0,1,371,212.43c0-.19.09-.37.14-.56a84,84,0,0,1,5.5-14.34c.08-.18.18-.37.27-.55a120,120,0,0,1,8.44-14.34l.38-.56A168.72,168.72,0,0,1,398,166.39l.49-.56c3.89-4.39,7.79-8.39,11.44-11.91a207.67,207.67,0,0,1,18.93-16.35c7,5.56,13.15,11,18.65,16.35,4.18,4.05,8,8,11.39,11.91l.48.56a172,172,0,0,1,12.26,15.69c.13.19.26.37.38.56.43.62.84,1.25,1.25,1.87l.56.84c2.64,4.06,4.88,8,6.78,11.63l.29.55A112.19,112.19,0,0,1,487,211.87c.06.19.12.37.19.56C491.93,226.57,491.15,235.17,491.15,235.17Z" fill="#88BE9E"/><path d="M447.51,153.92H409.93a207.67,207.67,0,0,1,18.93-16.35C435.82,143.13,442,148.58,447.51,153.92Z" fill="#fff" opacity="0.2" style="isolation:isolate"/><rect x="371.3" y="264.97" width="115.11" height="98.86" fill="#6B9EA4"/><rect x="371.3" y="264.97" width="115.11" height="98.86" fill="#fff" opacity="0.2" style="isolation:isolate"/><rect x="369.27" y="384.14" width="117.82" height="104.28" fill="#6B9EA4"/><rect x="369.27" y="384.14" width="117.82" height="104.28" fill="#fff" opacity="0.2" style="isolation:isolate"/><g opacity="0.2" style="isolation:isolate"><path d="M459.38,166.39H398l.49-.56H458.9Z" fill="#fff"/><path d="M472,182.64H385.3l.38-.56h86C471.77,182.27,471.9,182.45,472,182.64Z" fill="#fff"/><path d="M480.9,197.53H376.59c.08-.18.18-.37.27-.55H480.61Z" fill="#fff"/><path d="M487.21,212.43H371c0-.19.09-.37.14-.56H487C487.08,212.06,487.14,212.24,487.21,212.43Z" fill="#fff"/><rect x="436.24" y="153.92" width="0.55" height="12.19" fill="#fff"/><rect x="420.37" y="166.11" width="0.55" height="16.25" fill="#fff"/><rect x="398.79" y="182.36" width="0.55" height="14.9" fill="#fff"/><rect x="385.25" y="197.26" width="0.55" height="14.9" fill="#fff"/><rect x="423.17" y="197.26" width="0.55" height="14.9" fill="#fff"/><rect x="461.08" y="197.26" width="0.55" height="14.9" fill="#fff"/><rect x="474.63" y="212.15" width="0.55" height="13.54" fill="#fff"/><rect x="436.71" y="182.36" width="0.55" height="14.9" fill="#fff"/><path d="M473.83,185.35v11.91h-.56V184.51Z" fill="#fff"/><rect x="457.02" y="166.11" width="0.55" height="16.25" fill="#fff"/></g><rect x="501.99" y="455.92" width="18.28" height="185.53" fill="#6B9EA4"/><rect x="501.99" y="455.92" width="18.28" height="185.53" opacity="0.25" style="isolation:isolate"/><rect x="337.45" y="455.92" width="18.28" height="185.53" fill="#6B9EA4"/><rect x="337.45" y="455.92" width="18.28" height="185.53" opacity="0.25" style="isolation:isolate"/><rect x="355.73" y="492.48" width="146.26" height="148.97" fill="#6B9EA4"/><rect x="355.73" y="492.48" width="146.26" height="148.97" fill="#fff" opacity="0.2" style="isolation:isolate"/><rect x="355.73" y="492.48" width="146.26" height="8.13" fill="#6B9EA4"/><rect x="355.73" y="492.48" width="146.26" height="8.13" opacity="0.4" style="isolation:isolate"/><polygon points="109.94 455.92 109.94 492.48 224.37 492.48 224.37 455.92 206.79 455.92 206.79 472.69 192.8 472.69 192.8 455.92 174.75 455.92 174.75 472.69 160.76 472.69 160.76 455.92 141.31 455.92 141.31 472.69 127.32 472.69 127.32 455.92 109.94 455.92" fill="#6B9EA4"/><polygon points="109.94 455.92 109.94 492.48 224.37 492.48 224.37 455.92 206.79 455.92 206.79 472.69 192.8 472.69 192.8 455.92 174.75 455.92 174.75 472.69 160.76 472.69 160.76 455.92 141.31 455.92 141.31 472.69 127.32 472.69 127.32 455.92 109.94 455.92" opacity="0.3" style="isolation:isolate"/><rect x="109.94" y="492.48" width="114.43" height="9.48" fill="#6B9EA4"/><rect x="109.94" y="492.48" width="114.43" height="9.48" opacity="0.4" style="isolation:isolate"/><rect x="109.94" y="501.96" width="114.43" height="139.49" fill="#6B9EA4"/><rect x="109.94" y="501.96" width="114.43" height="139.49" fill="#fff" opacity="0.3" style="isolation:isolate"/><g opacity="0.2" style="isolation:isolate"><rect x="109.94" y="516.86" width="114.43" height="0.34" fill="#fff"/><rect x="109.94" y="533.11" width="114.43" height="0.34" fill="#fff"/><rect x="109.94" y="548" width="114.43" height="0.34" fill="#fff"/><rect x="109.94" y="562.9" width="114.43" height="0.34" fill="#fff"/><rect x="109.94" y="577.8" width="114.43" height="0.34" fill="#fff"/><rect x="109.94" y="594.05" width="114.43" height="0.34" fill="#fff"/><rect x="109.94" y="608.95" width="114.43" height="0.34" fill="#fff"/><rect x="109.94" y="625.2" width="114.43" height="0.34" fill="#fff"/><rect x="109.94" y="638.74" width="114.43" height="0.34" fill="#fff"/><rect x="210.8" y="501.96" width="0.55" height="15.07" fill="#fff"/><rect x="174.24" y="501.96" width="0.55" height="15.07" fill="#fff"/><rect x="139.03" y="501.96" width="0.55" height="15.07" fill="#fff"/><rect x="195.91" y="516.86" width="0.55" height="16.43" fill="#fff"/><rect x="159.34" y="516.86" width="0.55" height="16.43" fill="#fff"/><rect x="122.78" y="516.86" width="0.55" height="16.43" fill="#fff"/><rect x="210.8" y="533.11" width="0.55" height="14.9" fill="#fff"/><rect x="174.24" y="533.11" width="0.55" height="14.9" fill="#fff"/><rect x="137.67" y="533.11" width="0.55" height="14.9" fill="#fff"/><rect x="194.98" y="548" width="0.55" height="14.9" fill="#fff"/><rect x="159.77" y="548" width="0.55" height="14.9" fill="#fff"/><rect x="123.2" y="548" width="0.55" height="14.9" fill="#fff"/><rect x="211.23" y="562.9" width="0.55" height="14.9" fill="#fff"/><rect x="176.02" y="562.9" width="0.55" height="14.9" fill="#fff"/><rect x="139.45" y="562.9" width="0.55" height="14.9" fill="#fff"/><rect x="194.98" y="577.8" width="0.55" height="16.25" fill="#fff"/><rect x="211.23" y="594.05" width="0.55" height="14.9" fill="#fff"/><rect x="174.66" y="594.05" width="0.55" height="14.9" fill="#fff"/><rect x="139.45" y="594.05" width="0.55" height="14.9" fill="#fff"/><rect x="194.98" y="608.95" width="0.55" height="16.25" fill="#fff"/><rect x="211.23" y="625.2" width="0.55" height="13.54" fill="#fff"/><rect x="174.66" y="625.2" width="0.55" height="13.54" fill="#fff"/><rect x="139.45" y="625.2" width="0.55" height="13.54" fill="#fff"/><rect x="158.41" y="608.95" width="0.55" height="16.25" fill="#fff"/><rect x="123.2" y="608.95" width="0.55" height="16.25" fill="#fff"/><rect x="159.77" y="577.8" width="0.55" height="16.25" fill="#fff"/><rect x="123.2" y="577.8" width="0.55" height="16.25" fill="#fff"/></g><polygon points="634.09 455.92 634.09 492.48 748.52 492.48 748.52 455.92 730.95 455.92 730.95 472.69 716.96 472.69 716.96 455.92 698.91 455.92 698.91 472.69 684.92 472.69 684.92 455.92 665.47 455.92 665.47 472.69 651.48 472.69 651.48 455.92 634.09 455.92" fill="#6B9EA4"/><polygon points="634.09 455.92 634.09 492.48 748.52 492.48 748.52 455.92 730.95 455.92 730.95 472.69 716.96 472.69 716.96 455.92 698.91 455.92 698.91 472.69 684.92 472.69 684.92 455.92 665.47 455.92 665.47 472.69 651.48 472.69 651.48 455.92 634.09 455.92" opacity="0.3" style="isolation:isolate"/><rect x="634.09" y="492.48" width="114.43" height="9.48" fill="#6B9EA4"/><rect x="634.09" y="492.48" width="114.43" height="9.48" opacity="0.4" style="isolation:isolate"/><rect x="634.09" y="501.96" width="114.43" height="139.49" fill="#6B9EA4"/><rect x="634.09" y="501.96" width="114.43" height="139.49" fill="#fff" opacity="0.3" style="isolation:isolate"/><g opacity="0.2" style="isolation:isolate"><rect x="634.09" y="516.86" width="114.43" height="0.34" fill="#fff"/><rect x="634.09" y="533.11" width="114.43" height="0.34" fill="#fff"/><rect x="634.09" y="548" width="114.43" height="0.34" fill="#fff"/><rect x="634.09" y="562.9" width="114.43" height="0.34" fill="#fff"/><rect x="634.09" y="577.8" width="114.43" height="0.34" fill="#fff"/><rect x="634.09" y="594.05" width="114.43" height="0.34" fill="#fff"/><rect x="634.09" y="608.95" width="114.43" height="0.34" fill="#fff"/><rect x="634.09" y="625.2" width="114.43" height="0.34" fill="#fff"/><rect x="634.09" y="638.74" width="114.43" height="0.34" fill="#fff"/><rect x="734.96" y="501.96" width="0.55" height="15.07" fill="#fff"/><rect x="698.39" y="501.96" width="0.55" height="15.07" fill="#fff"/><rect x="663.18" y="501.96" width="0.55" height="15.07" fill="#fff"/><rect x="720.06" y="516.86" width="0.55" height="16.43" fill="#fff"/><rect x="683.5" y="516.86" width="0.55" height="16.43" fill="#fff"/><rect x="646.93" y="516.86" width="0.55" height="16.43" fill="#fff"/><rect x="734.96" y="533.11" width="0.55" height="14.9" fill="#fff"/><rect x="698.39" y="533.11" width="0.55" height="14.9" fill="#fff"/><rect x="661.83" y="533.11" width="0.55" height="14.9" fill="#fff"/><rect x="719.13" y="548" width="0.55" height="14.9" fill="#fff"/><rect x="683.92" y="548" width="0.55" height="14.9" fill="#fff"/><rect x="647.36" y="548" width="0.55" height="14.9" fill="#fff"/><rect x="735.38" y="562.9" width="0.55" height="14.9" fill="#fff"/><rect x="700.17" y="562.9" width="0.55" height="14.9" fill="#fff"/><rect x="663.61" y="562.9" width="0.55" height="14.9" fill="#fff"/><rect x="719.13" y="577.8" width="0.55" height="16.25" fill="#fff"/><rect x="735.38" y="594.05" width="0.55" height="14.9" fill="#fff"/><rect x="698.82" y="594.05" width="0.55" height="14.9" fill="#fff"/><rect x="663.61" y="594.05" width="0.55" height="14.9" fill="#fff"/><rect x="719.13" y="608.95" width="0.55" height="16.25" fill="#fff"/><rect x="735.38" y="625.2" width="0.55" height="13.54" fill="#fff"/><rect x="698.82" y="625.2" width="0.55" height="13.54" fill="#fff"/><rect x="663.61" y="625.2" width="0.55" height="13.54" fill="#fff"/><rect x="682.57" y="608.95" width="0.55" height="16.25" fill="#fff"/><rect x="647.36" y="608.95" width="0.55" height="16.25" fill="#fff"/><rect x="683.92" y="577.8" width="0.55" height="16.25" fill="#fff"/><rect x="647.36" y="577.8" width="0.55" height="16.25" fill="#fff"/></g><g opacity="0.3" style="isolation:isolate"><rect x="371.3" y="279.07" width="115.11" height="0.55" fill="#fff"/><rect x="371.3" y="295.84" width="115.11" height="0.55" fill="#fff"/><rect x="371.3" y="310.74" width="115.11" height="0.55" fill="#fff"/><rect x="371.3" y="325.63" width="115.11" height="0.55" fill="#fff"/><rect x="371.3" y="340.53" width="115.11" height="0.55" fill="#fff"/><rect x="400.93" y="264.97" width="0.55" height="14.38" fill="#fff"/><rect x="437.5" y="264.97" width="0.55" height="14.38" fill="#fff"/><rect x="472.71" y="264.97" width="0.55" height="14.38" fill="#fff"/><rect x="400.93" y="296.12" width="0.55" height="14.9" fill="#fff"/><rect x="437.5" y="296.12" width="0.55" height="14.9" fill="#fff"/><rect x="472.71" y="296.12" width="0.55" height="14.9" fill="#fff"/><rect x="384.68" y="279.35" width="0.55" height="16.77" fill="#fff"/><rect x="421.25" y="279.35" width="0.55" height="16.77" fill="#fff"/><rect x="456.46" y="279.35" width="0.55" height="16.77" fill="#fff"/><rect x="388.74" y="311.01" width="0.55" height="14.9" fill="#fff"/><rect x="460.52" y="311.01" width="0.55" height="14.9" fill="#fff"/></g><g opacity="0.2" style="isolation:isolate"><rect x="369.27" y="399.97" width="117.82" height="0.55" fill="#fff"/><rect x="369.27" y="416.37" width="117.82" height="0.55" fill="#fff"/><rect x="369.27" y="431.26" width="117.82" height="0.55" fill="#fff"/><rect x="369.27" y="447.51" width="117.82" height="0.55" fill="#fff"/><rect x="369.27" y="463.77" width="117.82" height="0.55" fill="#fff"/><rect x="398.9" y="384.14" width="0.55" height="16.11" fill="#fff"/><rect x="436.82" y="384.14" width="0.55" height="16.11" fill="#fff"/><rect x="473.38" y="384.14" width="0.55" height="16.11" fill="#fff"/><rect x="398.9" y="416.64" width="0.55" height="14.9" fill="#fff"/><rect x="473.38" y="416.64" width="0.55" height="14.9" fill="#fff"/><rect x="382.65" y="400.39" width="0.55" height="16.11" fill="#fff"/><rect x="382.65" y="431.54" width="0.55" height="16.11" fill="#fff"/><rect x="398.9" y="447.79" width="0.55" height="16.11" fill="#fff"/><rect x="436.82" y="447.79" width="0.55" height="16.11" fill="#fff"/><rect x="473.38" y="447.79" width="0.55" height="16.11" fill="#fff"/><rect x="457.13" y="431.54" width="0.55" height="16.11" fill="#fff"/><rect x="420.56" y="400.39" width="0.55" height="16.11" fill="#fff"/><rect x="457.13" y="400.39" width="0.55" height="16.11" fill="#fff"/></g><g opacity="0.2" style="isolation:isolate"><rect x="355.69" y="516.22" width="146.3" height="0.55" fill="#fff"/></g><g opacity="0.2" style="isolation:isolate"><rect x="355.69" y="532.47" width="146.3" height="0.55" fill="#fff"/></g><g opacity="0.2" style="isolation:isolate"><rect x="355.69" y="547.37" width="146.3" height="0.55" fill="#fff"/></g><g opacity="0.2" style="isolation:isolate"><rect x="355.69" y="562.27" width="146.3" height="0.55" fill="#fff"/></g><g opacity="0.2" style="isolation:isolate"><rect x="355.69" y="578.52" width="146.3" height="0.55" fill="#fff"/></g><g opacity="0.2" style="isolation:isolate"><rect x="355.69" y="594.77" width="146.3" height="0.55" fill="#fff"/></g><g opacity="0.2" style="isolation:isolate"><rect x="355.69" y="608.31" width="146.3" height="0.55" fill="#fff"/></g><g opacity="0.2" style="isolation:isolate"><rect x="355.69" y="624.56" width="146.3" height="0.55" fill="#fff"/></g><g opacity="0.2" style="isolation:isolate"><rect x="367.64" y="500.66" width="0.55" height="15.52" fill="#fff"/></g><g opacity="0.2" style="isolation:isolate"><rect x="404.21" y="500.66" width="0.55" height="15.52" fill="#fff"/></g><g opacity="0.2" style="isolation:isolate"><rect x="440.77" y="500.66" width="0.55" height="15.52" fill="#fff"/></g><g opacity="0.2" style="isolation:isolate"><rect x="419.1" y="516.5" width="0.55" height="16.35" fill="#fff"/></g><g opacity="0.2" style="isolation:isolate"><rect x="455.67" y="516.5" width="0.55" height="16.35" fill="#fff"/></g><g opacity="0.2" style="isolation:isolate"><rect x="475.98" y="500.66" width="0.55" height="15.52" fill="#fff"/></g><g opacity="0.2" style="isolation:isolate"><rect x="367.64" y="532.75" width="0.55" height="14.9" fill="#fff"/></g><g opacity="0.2" style="isolation:isolate"><rect x="404.13" y="532.75" width="0.55" height="14.9" fill="#fff"/></g><g opacity="0.2" style="isolation:isolate"><rect x="439.52" y="532.75" width="0.55" height="14.9" fill="#fff"/></g><g opacity="0.2" style="isolation:isolate"><rect x="476.56" y="532.75" width="0.55" height="14.9" fill="#fff"/></g><g opacity="0.2" style="isolation:isolate"><rect x="383.68" y="547.68" width="0.55" height="14.9" fill="#fff"/></g><g opacity="0.2" style="isolation:isolate"><rect x="492.05" y="547.68" width="0.55" height="14.9" fill="#fff"/></g><g opacity="0.2" style="isolation:isolate"><rect x="476.01" y="562.61" width="0.55" height="16.14" fill="#fff"/></g><g opacity="0.2" style="isolation:isolate"><rect x="368.2" y="594.78" width="0.55" height="13.82" fill="#fff"/></g><g opacity="0.2" style="isolation:isolate"><rect x="476.67" y="594.78" width="0.55" height="13.82" fill="#fff"/></g><g opacity="0.2" style="isolation:isolate"><rect x="492.15" y="578.75" width="0.55" height="16.03" fill="#fff"/></g><g opacity="0.2" style="isolation:isolate"><rect x="385.44" y="579.01" width="0.55" height="16.03" fill="#fff"/></g><g opacity="0.2" style="isolation:isolate"><rect x="367.74" y="624.64" width="0.55" height="16.03" fill="#fff"/></g><g opacity="0.2" style="isolation:isolate"><rect x="476.67" y="624.08" width="0.55" height="16.03" fill="#fff"/></g><polygon points="481.68 210.12 481.68 225.69 466.78 225.69 466.78 210.12 450.53 210.12 450.53 225.69 435.63 225.69 435.63 210.12 420.73 210.12 420.73 225.69 405.84 225.69 405.84 210.12 389.59 210.12 389.59 225.69 374.69 225.69 374.69 210.12 360.47 210.12 360.47 252.1 497.25 252.1 497.25 210.12 481.68 210.12" fill="#6B9EA4"/><polygon points="481.68 210.12 481.68 225.69 466.78 225.69 466.78 210.12 450.53 210.12 450.53 225.69 435.63 225.69 435.63 210.12 420.73 210.12 420.73 225.69 405.84 225.69 405.84 210.12 389.59 210.12 389.59 225.69 374.69 225.69 374.69 210.12 360.47 210.12 360.47 252.1 497.25 252.1 497.25 210.12 481.68 210.12" opacity="0.3" style="isolation:isolate"/><path d="M427.51,288h0a14.9,14.9,0,0,1,14.9,14.9v21.67a0,0,0,0,1,0,0H412.61a0,0,0,0,1,0,0V302.89A14.9,14.9,0,0,1,427.51,288Z" fill="#88BE9E"/><path d="M427.51,292.05h0a12.19,12.19,0,0,1,12.19,12.19v20.31a0,0,0,0,1,0,0H415.32a0,0,0,0,1,0,0V304.24a12.19,12.19,0,0,1,12.19-12.19Z" fill="#fff" opacity="0.3"/><rect x="409.9" y="321.85" width="35.21" height="8.13" rx="3.09" fill="#88BE9E"/><path d="M424,324.55h-1.11V302.49c0-11.7,2.75-13.28,3.07-13.42l.48,1S424,291.6,424,302.49Z" fill="#88BE9E"/><path d="M432.12,324.55H431V307.68c0-13.94-2.59-17.75-2.62-17.78l.9-.65c.12.17,2.83,4.14,2.83,18.43Z" fill="#88BE9E"/><path d="M428.18,399.12h0a14.9,14.9,0,0,1,14.9,14.9v21.67a0,0,0,0,1,0,0H413.29a0,0,0,0,1,0,0V414A14.9,14.9,0,0,1,428.18,399.12Z" fill="#88BE9E"/><path d="M428.18,403.19h0a12.19,12.19,0,0,1,12.19,12.19v20.31a0,0,0,0,1,0,0H416a0,0,0,0,1,0,0V415.38A12.19,12.19,0,0,1,428.18,403.19Z" fill="#fff" opacity="0.3"/><rect x="410.58" y="432.98" width="35.21" height="8.13" rx="3.09" fill="#88BE9E"/><path d="M424.67,435.69h-1.1V413.63c0-11.7,2.75-13.28,3.06-13.43l.48,1s-2.44,1.53-2.44,12.43Z" fill="#88BE9E"/><path d="M432.8,435.69h-1.11V418.82c0-13.94-2.6-17.75-2.62-17.79l.9-.64c.11.16,2.83,4.14,2.83,18.43Z" fill="#88BE9E"/><polygon points="483.09 329.29 483.09 344.87 467.6 344.87 467.6 329.29 450.71 329.29 450.71 344.87 435.22 344.87 435.22 329.29 419.74 329.29 419.74 344.87 404.25 344.87 404.25 329.29 387.35 329.29 387.35 344.87 371.87 344.87 371.87 329.29 357.08 329.29 357.08 371.28 499.28 371.28 499.28 329.29 483.09 329.29" fill="#6B9EA4"/><polygon points="483.09 329.29 483.09 344.87 467.6 344.87 467.6 329.29 450.71 329.29 450.71 344.87 435.22 344.87 435.22 329.29 419.74 329.29 419.74 344.87 404.25 344.87 404.25 329.29 387.35 329.29 387.35 344.87 371.87 344.87 371.87 329.29 357.08 329.29 357.08 371.28 499.28 371.28 499.28 329.29 483.09 329.29" opacity="0.3" style="isolation:isolate"/><polygon points="357.08 371.28 367.64 384.14 488.72 384.14 499.28 371.28 357.08 371.28" fill="#6B9EA4"/><polygon points="357.08 371.28 367.64 384.14 488.72 384.14 499.28 371.28 357.08 371.28" opacity="0.4" style="isolation:isolate"/><polygon points="484.59 455.92 484.59 472.69 470.61 472.69 470.61 455.92 451.16 455.92 451.16 472.69 437.17 472.69 437.17 455.92 419.12 455.92 419.12 472.69 405.13 472.69 405.13 455.92 387.04 455.92 387.04 471.34 375.76 471.34 375.76 455.92 355.69 455.92 355.69 492.48 501.99 492.48 501.99 455.92 484.59 455.92" fill="#6B9EA4"/><polygon points="484.59 455.92 484.59 472.69 470.61 472.69 470.61 455.92 451.16 455.92 451.16 472.69 437.17 472.69 437.17 455.92 419.12 455.92 419.12 472.69 405.13 472.69 405.13 455.92 387.04 455.92 387.04 471.34 375.76 471.34 375.76 455.92 355.69 455.92 355.69 492.48 501.99 492.48 501.99 455.92 484.59 455.92" opacity="0.3" style="isolation:isolate"/><path d="M379.43,507.38h0a11.51,11.51,0,0,1,11.51,11.51v19.64a0,0,0,0,1,0,0h-23a0,0,0,0,1,0,0V518.89A11.51,11.51,0,0,1,379.43,507.38Z" fill="#88BE9E"/><path d="M379.43,510.09h0a8.8,8.8,0,0,1,8.8,8.8v19.43a.21.21,0,0,1-.21.21H370.83a.21.21,0,0,1-.21-.21V518.89a8.8,8.8,0,0,1,8.8-8.8Z" fill="#fff" opacity="0.3"/><rect x="365.21" y="535.82" width="28.44" height="6.77" rx="0.71" fill="#88BE9E"/><path d="M478.29,507.38h0a11.51,11.51,0,0,1,11.51,11.51v19.64a0,0,0,0,1,0,0h-23a0,0,0,0,1,0,0V518.89A11.51,11.51,0,0,1,478.29,507.38Z" fill="#88BE9E"/><path d="M478.29,510.09h0a8.8,8.8,0,0,1,8.8,8.8v19.64a0,0,0,0,1,0,0H469.49a0,0,0,0,1,0,0V518.89a8.8,8.8,0,0,1,8.8-8.8Z" fill="#fff" opacity="0.3"/><rect x="464.07" y="535.82" width="28.44" height="6.77" rx="0.71" fill="#88BE9E"/><path d="M426,540.59h0a45.35,45.35,0,0,0-45.37,45.33v55.67h90.74V586a45.34,45.34,0,0,0-45.27-45.43Z" fill="#6B9EA4"/><path d="M426,540.59h0a45.35,45.35,0,0,0-45.37,45.33v55.67h90.74V586a45.34,45.34,0,0,0-45.27-45.43Z" fill="#fff" opacity="0.78" style="isolation:isolate"/><g opacity="0.5"><path d="M436,564.58l2.14,1.31L449.6,547.2c-.73-.44-1.43-.9-2.18-1.29Z" fill="#fff"/><rect x="449.86" y="603.94" width="21.55" height="2.54" fill="#fff"/><path d="M471.33,584.47H449.84V587h21.53v-1C471.39,585.46,471.33,585,471.33,584.47Z" fill="#fff"/><path d="M429.87,562.2l2.41.83,7-20.46c-.81-.26-1.63-.44-2.46-.63Z" fill="#fff"/><path d="M424.73,562.2h2.54V540.57h-2.54Z" fill="#fff"/><rect x="449.86" y="594.21" width="21.55" height="2.54" fill="#fff"/><path d="M443.09,569.05l16.67-13.36c-.55-.62-1.11-1.27-1.7-1.87l-16.54,13.26Z" fill="#fff"/><rect x="449.86" y="623.41" width="21.55" height="2.54" fill="#fff"/><path d="M466.47,565.47c-.37-.75-.77-1.48-1.19-2.22l-18.65,8.83,1.09,2.29Z" fill="#fff"/><rect x="449.86" y="613.68" width="21.55" height="2.54" fill="#fff"/><path d="M419.73,563l2.32-.83-6.94-20.26c-.84.21-1.67.39-2.46.63Z" fill="#fff"/><path d="M470.32,576.23c-.18-.83-.39-1.65-.61-2.46l-19.87,4.31.54,2.48Z" fill="#fff"/><path d="M405.38,572.12l-18.61-8.81c-.42.74-.84,1.47-1.21,2.22l18.73,8.88Z" fill="#fff"/><path d="M410.48,567.08,394,553.84c-.6.6-1.15,1.25-1.71,1.87l16.64,13.34Z" fill="#fff"/><rect x="449.86" y="633.15" width="21.55" height="2.54" fill="#fff"/><path d="M382.36,573.79c-.22.81-.44,1.63-.64,2.44l20,4.33.46-2.48Z" fill="#fff"/><path d="M414,565.89l2.16-1.31-11.47-18.66c-.74.4-1.45.86-2.19,1.29Z" fill="#fff"/><rect x="380.65" y="633.15" width="21.49" height="2.54" fill="#fff"/><path d="M402.21,584.47H380.77V587h21.44Z" fill="#fff"/><rect x="380.65" y="623.41" width="21.49" height="2.54" fill="#fff"/><rect x="380.65" y="613.68" width="21.49" height="2.54" fill="#fff"/><rect x="380.65" y="594.21" width="21.49" height="2.54" fill="#fff"/><rect x="380.65" y="603.94" width="21.49" height="2.54" fill="#fff"/></g><path d="M426,559.14h0a29.77,29.77,0,0,0-29.77,29.77v52.68h59.54v-52.7A29.77,29.77,0,0,0,426,559.14Z" fill="#6B9EA4"/><path d="M426,559.14h0a29.77,29.77,0,0,0-29.77,29.77v52.68h59.54v-52.7A29.77,29.77,0,0,0,426,559.14Z" opacity="0.2" style="isolation:isolate"/><g opacity="0.2"><path d="M406.61,566.39a27,27,0,0,0-2.54,2.48v71.65h2.54Z"/><path d="M427.29,559.2h-2.54v81.38h2.54Z"/><path d="M417,560.57c-.87.28-1.7.58-2.54.93v79H417Z"/><path d="M445.43,566.39v74.13H448V568.87A27,27,0,0,0,445.43,566.39Z"/><path d="M437.63,561.5c-.83-.35-1.66-.65-2.54-.93v79.95h2.54Z"/></g><path d="M426,570h0a31.33,31.33,0,0,1,29.77,21.55v-2.68A29.77,29.77,0,0,0,426,559.12h0a29.77,29.77,0,0,0-29.77,29.77v2.68A31.34,31.34,0,0,1,426,570Z" opacity="0.2" style="isolation:isolate"/><polygon points="333.38 392.27 333.38 407.65 318.49 407.65 318.49 392.27 302.24 392.27 302.24 407.65 287.34 407.65 287.34 392.27 272.44 392.27 272.44 407.65 257.55 407.65 257.55 392.27 241.3 392.27 241.3 407.65 226.4 407.65 226.4 392.27 212.18 392.27 212.18 433.73 348.96 433.73 348.96 392.27 333.38 392.27" fill="#6B9EA4"/><polygon points="333.38 392.27 333.38 407.65 318.49 407.65 318.49 392.27 302.24 392.27 302.24 407.65 287.34 407.65 287.34 392.27 272.44 392.27 272.44 407.65 257.55 407.65 257.55 392.27 241.3 392.27 241.3 407.65 226.4 407.65 226.4 392.27 212.18 392.27 212.18 433.73 348.96 433.73 348.96 392.27 333.38 392.27" opacity="0.3" style="isolation:isolate"/><polygon points="212.18 433.73 222.34 446.44 338.8 446.44 348.96 433.73 212.18 433.73" fill="#6B9EA4"/><polygon points="212.18 433.73 222.34 446.44 338.8 446.44 348.96 433.73 212.18 433.73" opacity="0.4" style="isolation:isolate"/><rect x="223.69" y="446.44" width="113.76" height="195.01" fill="#6B9EA4"/><rect x="223.69" y="446.44" width="113.76" height="195.01" fill="#fff" opacity="0.2" style="isolation:isolate"/><g opacity="0.2" style="isolation:isolate"><rect x="223.69" y="462.52" width="113.76" height="0.55" fill="#fff"/><rect x="223.69" y="477.31" width="113.76" height="0.55" fill="#fff"/><rect x="223.69" y="492.2" width="113.76" height="0.55" fill="#fff"/><rect x="223.69" y="508.46" width="113.76" height="0.55" fill="#fff"/><rect x="223.69" y="523.35" width="113.76" height="0.55" fill="#fff"/><rect x="223.69" y="536.89" width="113.76" height="0.55" fill="#fff"/><rect x="223.69" y="551.79" width="113.76" height="0.55" fill="#fff"/><rect x="223.69" y="568.04" width="113.76" height="0.55" fill="#fff"/><rect x="223.69" y="582.94" width="113.76" height="0.55" fill="#fff"/><rect x="223.69" y="597.83" width="113.76" height="0.55" fill="#fff"/><rect x="223.69" y="612.73" width="113.76" height="0.55" fill="#fff"/><rect x="223.69" y="627.63" width="113.76" height="0.55" fill="#fff"/><rect x="236.06" y="462.8" width="0.55" height="14.78" fill="#fff"/><rect x="272.63" y="462.8" width="0.55" height="14.78" fill="#fff"/><rect x="309.19" y="462.8" width="0.55" height="14.78" fill="#fff"/><rect x="324.09" y="446.55" width="0.55" height="16.14" fill="#fff"/><rect x="287.52" y="446.55" width="0.55" height="16.14" fill="#fff"/><rect x="252.31" y="446.55" width="0.55" height="16.14" fill="#fff"/><rect x="322.73" y="477.7" width="0.55" height="14.78" fill="#fff"/><rect x="286.17" y="477.7" width="0.55" height="14.78" fill="#fff"/><rect x="250.96" y="477.7" width="0.55" height="14.78" fill="#fff"/><rect x="236.06" y="492.59" width="0.55" height="16.14" fill="#fff"/><rect x="252.31" y="508.73" width="0.55" height="14.9" fill="#fff"/><rect x="236.28" y="523.63" width="0.55" height="13.54" fill="#fff"/><rect x="272.85" y="523.63" width="0.55" height="13.54" fill="#fff"/><rect x="308.06" y="523.63" width="0.55" height="13.54" fill="#fff"/><rect x="251.18" y="537.17" width="0.55" height="14.9" fill="#fff"/><rect x="287.74" y="537.17" width="0.55" height="14.9" fill="#fff"/><rect x="324.31" y="537.17" width="0.55" height="14.9" fill="#fff"/><rect x="234.93" y="552.07" width="0.55" height="16.25" fill="#fff"/><rect x="255.24" y="568.32" width="0.55" height="14.9" fill="#fff"/><rect x="236.28" y="583.21" width="0.55" height="14.9" fill="#fff"/><rect x="272.85" y="583.21" width="0.55" height="14.9" fill="#fff"/><rect x="308.06" y="583.21" width="0.55" height="14.9" fill="#fff"/><rect x="251.18" y="598.11" width="0.55" height="14.9" fill="#fff"/><rect x="287.74" y="598.11" width="0.55" height="14.9" fill="#fff"/><rect x="272.85" y="613.01" width="0.55" height="14.9" fill="#fff"/><rect x="308.06" y="613.01" width="0.55" height="14.9" fill="#fff"/><rect x="324.31" y="598.11" width="0.55" height="14.9" fill="#fff"/><rect x="287.74" y="568.32" width="0.55" height="14.9" fill="#fff"/><rect x="324.31" y="568.32" width="0.55" height="14.9" fill="#fff"/><rect x="272.85" y="552.07" width="0.55" height="16.25" fill="#fff"/><rect x="308.06" y="552.07" width="0.55" height="16.25" fill="#fff"/><rect x="322.95" y="508.73" width="0.55" height="14.9" fill="#fff"/><rect x="309.19" y="492.59" width="0.55" height="16.14" fill="#fff"/></g><path d="M279.22,472.17h0a16.93,16.93,0,0,1,16.93,16.93v29.12a0,0,0,0,1,0,0H262.29a0,0,0,0,1,0,0V489.09A16.93,16.93,0,0,1,279.22,472.17Z" fill="#88BE9E"/><path d="M290.73,489.09v29.12h-23V489.09a11.52,11.52,0,0,1,11.52-11.51,11.15,11.15,0,0,1,3.75.64,11.53,11.53,0,0,1,7.76,10.87Z" fill="#fff" opacity="0.3"/><path d="M283,478.22a11.29,11.29,0,0,0-8.93,5.34A13.5,13.5,0,0,0,272,491v27.24H267.7V489.49a11.78,11.78,0,0,1,11.13-11.9A11.19,11.19,0,0,1,283,478.22Z" fill="#fff" opacity="0.3"/><rect x="256.87" y="515.5" width="46.04" height="10.83" rx="1.38" fill="#88BE9E"/><polygon points="630.3 392.27 630.3 407.65 615.4 407.65 615.4 392.27 599.15 392.27 599.15 407.65 584.25 407.65 584.25 392.27 569.36 392.27 569.36 407.65 554.46 407.65 554.46 392.27 538.21 392.27 538.21 407.65 523.31 407.65 523.31 392.27 509.09 392.27 509.09 433.73 645.87 433.73 645.87 392.27 630.3 392.27" fill="#6B9EA4"/><polygon points="630.3 392.27 630.3 407.65 615.4 407.65 615.4 392.27 599.15 392.27 599.15 407.65 584.25 407.65 584.25 392.27 569.36 392.27 569.36 407.65 554.46 407.65 554.46 392.27 538.21 392.27 538.21 407.65 523.31 407.65 523.31 392.27 509.09 392.27 509.09 433.73 645.87 433.73 645.87 392.27 630.3 392.27" opacity="0.3" style="isolation:isolate"/><polygon points="509.09 433.73 519.25 446.44 635.71 446.44 645.87 433.73 509.09 433.73" fill="#6B9EA4"/><polygon points="509.09 433.73 519.25 446.44 635.71 446.44 645.87 433.73 509.09 433.73" opacity="0.4" style="isolation:isolate"/><rect x="520.6" y="446.44" width="113.76" height="195.01" fill="#6B9EA4"/><rect x="520.6" y="446.44" width="113.76" height="195.01" fill="#fff" opacity="0.2" style="isolation:isolate"/><g opacity="0.2" style="isolation:isolate"><rect x="520.6" y="462.52" width="113.76" height="0.55" fill="#fff"/><rect x="520.6" y="477.31" width="113.76" height="0.55" fill="#fff"/><rect x="520.6" y="492.2" width="113.76" height="0.55" fill="#fff"/><rect x="520.6" y="508.46" width="113.76" height="0.55" fill="#fff"/><rect x="520.6" y="523.35" width="113.76" height="0.55" fill="#fff"/><rect x="520.6" y="536.89" width="113.76" height="0.55" fill="#fff"/><rect x="520.6" y="551.79" width="113.76" height="0.55" fill="#fff"/><rect x="520.6" y="568.04" width="113.76" height="0.55" fill="#fff"/><rect x="520.6" y="582.94" width="113.76" height="0.55" fill="#fff"/><rect x="520.6" y="597.83" width="113.76" height="0.55" fill="#fff"/><rect x="520.6" y="612.73" width="113.76" height="0.55" fill="#fff"/><rect x="520.6" y="627.63" width="113.76" height="0.55" fill="#fff"/><rect x="532.97" y="462.8" width="0.55" height="14.78" fill="#fff"/><rect x="569.54" y="462.8" width="0.55" height="14.78" fill="#fff"/><rect x="606.1" y="462.8" width="0.55" height="14.78" fill="#fff"/><rect x="621" y="446.55" width="0.55" height="16.14" fill="#fff"/><rect x="584.43" y="446.55" width="0.55" height="16.14" fill="#fff"/><rect x="549.22" y="446.55" width="0.55" height="16.14" fill="#fff"/><rect x="619.64" y="477.7" width="0.55" height="14.78" fill="#fff"/><rect x="583.08" y="477.7" width="0.55" height="14.78" fill="#fff"/><rect x="547.87" y="477.7" width="0.55" height="14.78" fill="#fff"/><rect x="532.97" y="492.59" width="0.55" height="16.14" fill="#fff"/><rect x="549.22" y="508.73" width="0.55" height="14.9" fill="#fff"/><rect x="533.19" y="523.63" width="0.55" height="13.54" fill="#fff"/><rect x="569.76" y="523.63" width="0.55" height="13.54" fill="#fff"/><rect x="604.97" y="523.63" width="0.55" height="13.54" fill="#fff"/><rect x="548.09" y="537.17" width="0.55" height="14.9" fill="#fff"/><rect x="584.65" y="537.17" width="0.55" height="14.9" fill="#fff"/><rect x="621.22" y="537.17" width="0.55" height="14.9" fill="#fff"/><rect x="531.84" y="552.07" width="0.55" height="16.25" fill="#fff"/><rect x="552.15" y="568.32" width="0.55" height="14.9" fill="#fff"/><rect x="533.19" y="583.21" width="0.55" height="14.9" fill="#fff"/><rect x="569.76" y="583.21" width="0.55" height="14.9" fill="#fff"/><rect x="604.97" y="583.21" width="0.55" height="14.9" fill="#fff"/><rect x="548.09" y="598.11" width="0.55" height="14.9" fill="#fff"/><rect x="584.65" y="598.11" width="0.55" height="14.9" fill="#fff"/><rect x="569.76" y="613.01" width="0.55" height="14.9" fill="#fff"/><rect x="604.97" y="613.01" width="0.55" height="14.9" fill="#fff"/><rect x="621.22" y="598.11" width="0.55" height="14.9" fill="#fff"/><rect x="584.65" y="568.32" width="0.55" height="14.9" fill="#fff"/><rect x="621.22" y="568.32" width="0.55" height="14.9" fill="#fff"/><rect x="569.76" y="552.07" width="0.55" height="16.25" fill="#fff"/><rect x="604.97" y="552.07" width="0.55" height="16.25" fill="#fff"/><rect x="619.86" y="508.73" width="0.55" height="14.9" fill="#fff"/><rect x="606.1" y="492.59" width="0.55" height="16.14" fill="#fff"/></g><path d="M576.13,472.17h0a16.93,16.93,0,0,1,16.93,16.93v29.12a0,0,0,0,1,0,0H559.2a0,0,0,0,1,0,0V489.09A16.93,16.93,0,0,1,576.13,472.17Z" fill="#88BE9E"/><path d="M587.64,489.09v29.12h-23V489.09a11.52,11.52,0,0,1,11.51-11.51,11.15,11.15,0,0,1,3.75.64,11.5,11.5,0,0,1,7.76,10.87Z" fill="#fff" opacity="0.3"/><path d="M579.88,478.22a11.25,11.25,0,0,0-8.92,5.34,13.51,13.51,0,0,0-2.09,7.41v27.24h-4.25V489.49a11.77,11.77,0,0,1,11.12-11.9A11.19,11.19,0,0,1,579.88,478.22Z" fill="#fff" opacity="0.3"/><rect x="553.78" y="515.5" width="46.04" height="10.83" rx="1.38" fill="#88BE9E"/><path d="M155.26,580.65S144.4,583,128,570.5s11.1-66.58,22.53-79,40.4,55.12,32,69.37S164.45,579,155.26,580.65Z" fill="#6B9EA4"/><polyline points="150.75 640.19 152.45 564.53 145.11 556.65 153.01 561.15 153.01 547.61 142.84 535.75 152.45 543.09 151.31 533.5 154.13 538.02 155.83 510.91 156.97 552.13 175.59 541.97 156.97 557.76 156.97 565.1 156.97 642.44" fill="#88BE9E"/><path d="M154.89,607.53c.47-1.2-2.57-1.36-3.37-1.37v3.6C152.49,609.31,154.49,608.46,154.89,607.53Z" fill="gray"/><path d="M157,576.93c-1.58.38-4.73,1.29-3.78,2.22a6.91,6.91,0,0,0,3.78,1.12Z" fill="gray"/><path d="M155.11,587.05c.49-1.19-3.15-1.19-3.15-1.19h0V589C152.75,588.83,154.73,588.05,155.11,587.05Z" fill="gray"/><path d="M154.87,571.43c.36-.9-1.57-1.13-2.55-1.19v3C153.22,572.88,154.57,572.19,154.87,571.43Z" fill="gray"/><path d="M151.31,623.94l-.23,1.68v2.08c.83-.28,3.4-1.23,3.85-2.38C155.44,623.94,151.31,623.94,151.31,623.94Z" fill="gray"/><path d="M152.68,598.39a8,8,0,0,0,4.29,1.29v-3.81C155.19,596.31,151.64,597.35,152.68,598.39Z" fill="gray"/><path d="M152.93,563.43a7.49,7.49,0,0,0,4,1.15v-3.43C155.53,561.53,152,562.49,152.93,563.43Z" fill="gray"/><path d="M156.68,542c-1.57.46-3.53,1.2-2.77,1.95a5.33,5.33,0,0,0,2.85,1Z" fill="gray"/><path d="M157,613.73c-1.78.44-5.33,1.48-4.29,2.52a8,8,0,0,0,4.29,1.28Z" fill="gray"/><path d="M153,550.68v3.15c1-.38,2.49-1.09,2.82-1.89S154,550.71,153,550.68Z" fill="gray"/><path d="M112.32,600.52s-7.1,2.28-18.2-5.07,5.46-45.83,12.59-55,28.21,34.64,23.06,44.86S118.34,598.82,112.32,600.52Z" fill="#6B9EA4"/><polyline points="106.26 640.93 107.39 590.25 102.48 584.96 107.77 587.98 107.77 578.91 100.97 570.96 107.39 575.89 106.64 569.45 108.53 572.49 109.66 554.33 110.42 581.94 122.9 575.13 110.42 585.72 110.42 590.63 110.42 642.44" fill="#88BE9E"/><path d="M109,619c.31-.81-1.72-.9-2.25-.92v2.41C107.42,620.25,108.76,619.67,109,619Z" fill="gray"/><path d="M110.42,598.55c-1,.25-3.15.87-2.52,1.5a4.67,4.67,0,0,0,2.52.74Z" fill="gray"/><path d="M109.19,605.37c.31-.8-2.11-.8-2.11-.8h0v2.12C107.6,606.53,108.94,606,109.19,605.37Z" fill="gray"/><path d="M109,594.93c.26-.6-1-.76-1.7-.79v2C107.91,595.83,108.81,595.37,109,594.93Z" fill="gray"/><path d="M106.71,630.05l-.15,1.13v1.39c.55-.19,2.28-.84,2.58-1.58S106.71,630.05,106.71,630.05Z" fill="gray"/><path d="M107.57,612.94a5.31,5.31,0,0,0,2.85.85v-2.55C109.23,611.54,106.86,612.25,107.57,612.94Z" fill="gray"/><path d="M107.72,589.53a5,5,0,0,0,2.7.77V588C109.47,588.24,107.08,588.88,107.72,589.53Z" fill="gray"/><path d="M110.23,575.13c-1.06.3-2.35.81-1.86,1.31a3.6,3.6,0,0,0,1.92.68Z" fill="gray"/><path d="M110.42,623.27c-1.19.29-3.56,1-2.85,1.69a5.4,5.4,0,0,0,2.85.87Z" fill="gray"/><path d="M107.77,581V583c.65-.25,1.68-.73,1.89-1.26S108.29,581,107.77,581Z" fill="gray"/><path d="M220.1,642.44c.75-7-4.9-14.46-12.08-14.8-6.44-.32-13.51,4-18.9.44-4.38-2.92-4.47-9.15-5-14.4s-1.94-10.53-5.36-14.48-9.18-6.21-14.17-4.4c-9.89,3.64-10.5,19.88-20.61,22.85-7,2.08-14.3-3.75-21.48-2.45-8.79,1.57-12.76,11.3-19.52,16.06-.69.49-3.63,2.61-7,5.07-2.82,2.06-5.93,4.35-8.28,6.11Z" fill="#6B9EA4"/><path d="M220.1,642.44c.75-7-4.9-14.46-12.08-14.8-6.44-.32-13.51,4-18.9.44-4.38-2.92-4.47-9.15-5-14.4s-1.94-10.53-5.36-14.48-9.18-6.21-14.17-4.4c-9.89,3.64-10.5,19.88-20.61,22.85-7,2.08-14.3-3.75-21.48-2.45-8.79,1.57-12.76,11.3-19.52,16.06-.69.49-3.63,2.61-7,5.07-2.82,2.06-5.93,4.35-8.28,6.11Z" fill="#fff" opacity="0.4" style="isolation:isolate"/><path d="M157.64,642.8l-.17,0a.52.52,0,0,1-.3-.65L168.7,611a.5.5,0,1,1,.94.35l-11.53,31.16A.5.5,0,0,1,157.64,642.8Z" fill="#88BE9E"/><line x1="199.48" y1="642.3" x2="206.3" y2="635.89" fill="none" stroke="#263238" stroke-linecap="round" stroke-linejoin="round"/><path d="M165.75,621a.47.47,0,0,1-.42-.24l-3.4-5.55a.49.49,0,0,1,.16-.69.5.5,0,0,1,.69.16l3.4,5.56a.5.5,0,0,1-.17.69A.48.48,0,0,1,165.75,621Z" fill="#88BE9E"/><path d="M162.35,629.57a.5.5,0,0,1-.44-.26.51.51,0,0,1,.2-.68l12.38-6.83a.5.5,0,0,1,.68.19.5.5,0,0,1-.2.68l-12.38,6.84A.5.5,0,0,1,162.35,629.57Z" fill="#88BE9E"/><path d="M158.65,640.4a.48.48,0,0,1-.47-.33.5.5,0,0,1,.3-.64l11.37-4a.5.5,0,1,1,.34.94l-11.37,4A.5.5,0,0,1,158.65,640.4Z" fill="#88BE9E"/><path d="M160.21,636a.52.52,0,0,1-.44-.25l-7.25-12.8a.49.49,0,0,1,.18-.68.51.51,0,0,1,.69.18l7.25,12.81a.49.49,0,0,1-.18.68A.57.57,0,0,1,160.21,636Z" fill="#88BE9E"/><path d="M170.27,611.13a1.1,1.1,0,1,1-1.1-1.1A1.1,1.1,0,0,1,170.27,611.13Z" fill="#88BE9E"/><path d="M163.41,614.88a1.11,1.11,0,1,1-1.11-1.1,1.11,1.11,0,0,1,1.11,1.1Z" fill="#88BE9E"/><path d="M175.83,622.23a1.1,1.1,0,1,1-1.1-1.1,1.11,1.11,0,0,1,1.1,1.1Z" fill="#88BE9E"/><path d="M154.05,622.66a1.1,1.1,0,1,1-1.1-1.1,1.1,1.1,0,0,1,1.1,1.1Z" fill="#88BE9E"/><path d="M171.71,635.71a1.11,1.11,0,0,1-1.09,1.12,1.1,1.1,0,1,1,0-2.2h0A1.1,1.1,0,0,1,171.71,635.71Z" fill="#88BE9E"/><path d="M207,636.16a1.1,1.1,0,1,1-1.1-1.11,1.1,1.1,0,0,1,1.1,1.11Z" fill="#263238"/><path d="M138,642.37a.49.49,0,0,1-.47-.34L132,625.81a.5.5,0,0,1,.31-.63.51.51,0,0,1,.64.31l5.55,16.22a.49.49,0,0,1-.31.63A.41.41,0,0,1,138,642.37Z" fill="#88BE9E"/><path d="M136.49,638.53l-.17,0a.51.51,0,0,1-.3-.64l3.66-9.83a.5.5,0,0,1,.64-.3.52.52,0,0,1,.3.65L137,638.2A.48.48,0,0,1,136.49,638.53Z" fill="#88BE9E"/><path d="M135.77,636.12h-.12L123,633a.5.5,0,0,1-.37-.61.5.5,0,0,1,.61-.36l12.69,3.15a.48.48,0,0,1,.36.6A.49.49,0,0,1,135.77,636.12Z" fill="#88BE9E"/><path d="M133.56,625.65a1.1,1.1,0,1,1-1.1-1.1,1.1,1.1,0,0,1,1.1,1.1Z" fill="#88BE9E"/><path d="M141.06,628.23a1.1,1.1,0,1,1-1.1-1.1,1.11,1.11,0,0,1,1.1,1.1Z" fill="#88BE9E"/><path d="M124.18,632.47a1.11,1.11,0,1,1-1.12-1.09h0A1.11,1.11,0,0,1,124.18,632.47Z" fill="#88BE9E"/><path d="M294.35,642.44c.58-5.36-3.78-11.13-9.29-11.4-5-.24-10.41,3.15-14.54.34-3.37-2.25-3.45-7-3.82-11a19.84,19.84,0,0,0-4.08-11.26c-2.65-3-7.07-4.72-10.85-3.37-7.61,2.8-8.08,15.29-15.86,17.59-5.39,1.58-11-2.88-16.54-1.89-6.75,1.21-9.81,8.69-15,12.36-.54.38-2.81,2-5.39,3.89-2.17,1.58-4.57,3.36-6.3,4.73Z" fill="#6B9EA4"/><path d="M294.35,642.44c.58-5.36-3.78-11.13-9.29-11.4-5-.24-10.41,3.15-14.54.34-3.37-2.25-3.45-7-3.82-11a19.84,19.84,0,0,0-4.08-11.26c-2.65-3-7.07-4.72-10.85-3.37-7.61,2.8-8.08,15.29-15.86,17.59-5.39,1.58-11-2.88-16.54-1.89-6.75,1.21-9.81,8.69-15,12.36-.54.38-2.81,2-5.39,3.89-2.17,1.58-4.57,3.36-6.3,4.73Z" fill="#fff" opacity="0.4" style="isolation:isolate"/><path d="M231.18,642.5a.5.5,0,0,1-.47-.34l-4.28-12.47a.51.51,0,0,1,.31-.64.49.49,0,0,1,.63.31l4.29,12.48a.5.5,0,0,1-.31.63A.51.51,0,0,1,231.18,642.5Z" fill="#88BE9E"/><path d="M246.29,642.83a.57.57,0,0,1-.18,0,.5.5,0,0,1-.29-.65l8.86-24a.5.5,0,0,1,.65-.29.49.49,0,0,1,.29.64l-8.86,24A.52.52,0,0,1,246.29,642.83Z" fill="#88BE9E"/><path d="M278.47,642.83a.48.48,0,0,1-.36-.16.5.5,0,0,1,0-.71l5.26-4.93a.51.51,0,0,1,.71,0,.5.5,0,0,1,0,.71l-5.26,4.92A.52.52,0,0,1,278.47,642.83Z" fill="#88BE9E"/><path d="M230,639.54l-.17,0a.5.5,0,0,1-.29-.65l2.81-7.54A.5.5,0,0,1,233,631a.49.49,0,0,1,.29.64l-2.82,7.54A.5.5,0,0,1,230,639.54Z" fill="#88BE9E"/><path d="M229.45,637.69h-.12l-9.76-2.42a.5.5,0,0,1,.24-1l9.76,2.43a.51.51,0,0,1,.37.61A.5.5,0,0,1,229.45,637.69Z" fill="#88BE9E"/><path d="M252.52,626.07a.47.47,0,0,1-.42-.24l-2.62-4.26a.5.5,0,0,1,.85-.53l2.62,4.27a.5.5,0,0,1-.17.69A.48.48,0,0,1,252.52,626.07Z" fill="#88BE9E"/><path d="M249.91,632.64a.49.49,0,0,1-.44-.26.51.51,0,0,1,.2-.68l9.51-5.24a.5.5,0,0,1,.68.19.5.5,0,0,1-.2.68l-9.51,5.25A.53.53,0,0,1,249.91,632.64Z" fill="#88BE9E"/><path d="M247.06,641a.51.51,0,0,1-.17-1l8.76-3.08a.5.5,0,1,1,.33.94L247.22,641A.45.45,0,0,1,247.06,641Z" fill="#88BE9E"/><path d="M248.26,637.57a.5.5,0,0,1-.44-.25l-5.57-9.85a.49.49,0,0,1,.18-.68.51.51,0,0,1,.69.19l5.57,9.84a.49.49,0,0,1-.19.68A.44.44,0,0,1,248.26,637.57Z" fill="#88BE9E"/><path d="M256,618.35a.86.86,0,0,1-.85.85h0a.87.87,0,0,1-1-.73.86.86,0,0,1,.73-1h.23A.85.85,0,0,1,256,618.35Z" fill="#88BE9E"/><circle cx="249.85" cy="621.23" r="0.85" fill="#88BE9E"/><circle cx="259.42" cy="626.9" r="0.85" fill="#88BE9E"/><circle cx="242.68" cy="627.23" r="0.85" fill="#88BE9E"/><circle cx="256.26" cy="637.27" r="0.85" fill="#88BE9E"/><path d="M284.25,637.6a.85.85,0,0,1-.85.85h0a.84.84,0,0,1-.84-.85.85.85,0,1,1,1.69,0Z" fill="#88BE9E"/><path d="M227.75,629.57a.85.85,0,1,1-.85-.85.85.85,0,0,1,.85.85Z" fill="#88BE9E"/><circle cx="232.66" cy="631.51" r="0.85" fill="#88BE9E"/><circle cx="219.69" cy="634.77" r="0.85" fill="#88BE9E"/><path d="M708.89,579.86S719.62,581,736,566.41s-10.23-66.14-21.4-77.39S674,549.56,682.2,563,699.84,579.29,708.89,579.86Z" fill="#6B9EA4"/><polyline points="714.47 640.19 712.77 564.53 720.1 556.65 712.2 561.15 712.2 547.61 722.37 535.75 712.77 543.09 713.9 533.5 711.08 538.02 709.38 510.91 708.25 552.13 689.62 541.97 708.25 557.76 708.25 565.1 708.25 642.44" fill="#88BE9E"/><path d="M710.32,607.53c-.47-1.2,2.57-1.36,3.37-1.37l.08,3.6C712.72,609.31,710.73,608.46,710.32,607.53Z" fill="gray"/><path d="M708.28,576.93c1.57.38,4.72,1.29,3.78,2.22a7,7,0,0,1-3.78,1.12Z" fill="gray"/><path d="M710.1,587.05c-.48-1.19,3.15-1.19,3.15-1.19h0V589C712.47,588.83,710.48,588.05,710.1,587.05Z" fill="gray"/><path d="M710.34,571.43c-.36-.9,1.58-1.13,2.55-1.19l.08,3C712,572.88,710.64,572.19,710.34,571.43Z" fill="gray"/><path d="M713.9,623.94l.24,1.68v2.08c-.84-.28-3.41-1.23-3.86-2.38C709.85,623.94,713.9,623.94,713.9,623.94Z" fill="gray"/><path d="M712.53,598.39a8,8,0,0,1-4.25,1.26v-3.78C710,596.31,713.57,597.35,712.53,598.39Z" fill="gray"/><path d="M712.28,563.43a7.49,7.49,0,0,1-4,1.15v-3.43C709.68,561.53,713.25,562.49,712.28,563.43Z" fill="gray"/><path d="M708.53,542c1.57.46,3.53,1.2,2.77,1.95a5.33,5.33,0,0,1-2.85,1Z" fill="gray"/><path d="M708.28,613.73c1.78.44,5.32,1.48,4.28,2.52a7.92,7.92,0,0,1-4.28,1.28Z" fill="gray"/><path d="M712.2,550.68v3.15c-1-.38-2.49-1.09-2.82-1.89S711.33,550.71,712.2,550.68Z" fill="gray"/><path d="M756,601.23s7.33.82,18.21-8.68-8-43.72-15.75-51.2S731.87,581,737.65,589.92,749.85,600.83,756,601.23Z" fill="#6B9EA4"/><polyline points="758.95 640.93 757.82 590.25 762.73 584.96 757.44 587.98 757.44 578.91 764.25 570.96 757.82 575.89 758.58 569.45 756.69 572.49 755.55 554.33 754.8 581.94 742.31 575.13 754.8 585.72 754.8 590.63 754.8 642.44" fill="#88BE9E"/><path d="M756.18,619c-.31-.81,1.72-.9,2.25-.92v2.41C757.79,620.25,756.45,619.67,756.18,619Z" fill="gray"/><path d="M754.8,598.55c1,.25,3.15.87,2.53,1.5a4.75,4.75,0,0,1-2.53.74Z" fill="gray"/><path d="M756,605.37c-.31-.8,2.12-.8,2.12-.8h0v2.12C757.62,606.53,756.28,606,756,605.37Z" fill="gray"/><path d="M756.2,594.93c-.25-.6,1-.76,1.7-.79v2C757.3,595.83,756.4,595.37,756.2,594.93Z" fill="gray"/><path d="M758.58,630.05l.15,1.13v1.39c-.55-.19-2.26-.84-2.58-1.58S758.58,630.05,758.58,630.05Z" fill="gray"/><path d="M757.65,612.94a5.37,5.37,0,0,1-2.85.85v-2.55C756,611.54,758.36,612.25,757.65,612.94Z" fill="gray"/><path d="M757.49,589.53a5,5,0,0,1-2.69.77V588C755.74,588.24,758.14,588.88,757.49,589.53Z" fill="gray"/><path d="M755,575.13c1,.3,2.36.81,1.85,1.31a3.6,3.6,0,0,1-1.92.68Z" fill="gray"/><path d="M754.8,623.27c1.18.29,3.56,1,2.85,1.69a5.45,5.45,0,0,1-2.85.87Z" fill="gray"/><path d="M757.44,581V583c-.64-.25-1.67-.73-1.89-1.26S756.86,581,757.44,581Z" fill="gray"/><path d="M658.91,601.23s7.31.82,18.2-8.68-8-43.72-15.74-51.2S634.75,581,640.53,589.92,652.74,600.83,658.91,601.23Z" fill="#6B9EA4"/><polyline points="661.82 640.93 660.7 590.25 665.62 584.96 660.33 587.98 660.33 578.91 667.13 570.96 660.7 575.89 661.44 569.45 659.55 572.49 658.42 554.33 657.66 581.94 645.19 575.13 657.66 585.72 657.66 590.63 657.66 642.44" fill="#88BE9E"/><path d="M659.07,619c-.33-.81,1.71-.9,2.25-.92v2.41C660.66,620.25,659.33,619.67,659.07,619Z" fill="gray"/><path d="M657.66,598.55c1,.25,3.15.87,2.54,1.5a4.76,4.76,0,0,1-2.54.74Z" fill="gray"/><path d="M658.91,605.37c-.32-.8,2.09-.8,2.09-.8h0v2.12C660.48,606.53,659.16,606,658.91,605.37Z" fill="gray"/><path d="M659.07,594.93c-.24-.6,1-.76,1.71-.79v2C660.18,595.83,659.27,595.37,659.07,594.93Z" fill="gray"/><path d="M661.44,630.05l.18,1.13v1.39c-.57-.19-2.29-.84-2.59-1.58S661.44,630.05,661.44,630.05Z" fill="gray"/><path d="M660.53,612.94a5.41,5.41,0,0,1-2.87.85v-2.55C658.86,611.54,661.22,612.25,660.53,612.94Z" fill="gray"/><path d="M660.36,589.53a5,5,0,0,1-2.7.77V588C658.63,588.24,661,588.88,660.36,589.53Z" fill="gray"/><path d="M657.89,575.13c1.07.3,2.36.81,1.85,1.31a3.51,3.51,0,0,1-1.9.68Z" fill="gray"/><path d="M657.66,623.27c1.2.29,3.56,1,2.87,1.69a5.49,5.49,0,0,1-2.87.87Z" fill="gray"/><path d="M660.31,581V583c-.65-.25-1.67-.73-1.89-1.26S659.74,581,660.31,581Z" fill="gray"/><path d="M645.11,642.44c-.75-7,4.9-14.46,12.08-14.8,6.44-.32,13.51,4,18.9.44,4.38-2.92,4.47-9.15,5-14.4s1.93-10.53,5.35-14.48,9.18-6.21,14.09-4.4c9.89,3.64,10.51,19.88,20.62,22.85,7,2.08,14.3-3.75,21.48-2.45,8.79,1.57,12.75,11.3,19.51,16.06.69.49,3.64,2.61,7,5.07,2.82,2.06,5.94,4.35,8.28,6.11Z" fill="#6B9EA4"/><path d="M645.11,642.44c-.75-7,4.9-14.46,12.08-14.8,6.44-.32,13.51,4,18.9.44,4.38-2.92,4.47-9.15,5-14.4s1.93-10.53,5.35-14.48,9.18-6.21,14.09-4.4c9.89,3.64,10.51,19.88,20.62,22.85,7,2.08,14.3-3.75,21.48-2.45,8.79,1.57,12.75,11.3,19.51,16.06.69.49,3.64,2.61,7,5.07,2.82,2.06,5.94,4.35,8.28,6.11Z" fill="#fff" opacity="0.4" style="isolation:isolate"/><path d="M727.19,642.37a.45.45,0,0,1-.16,0,.49.49,0,0,1-.31-.63l5.56-16.22a.5.5,0,1,1,.94.32L727.66,642A.49.49,0,0,1,727.19,642.37Z" fill="#88BE9E"/><path d="M707.57,642.8a.51.51,0,0,1-.47-.33l-11.53-31.16a.52.52,0,0,1,.3-.65.5.5,0,0,1,.64.3L708,642.12a.52.52,0,0,1-.3.65A.47.47,0,0,1,707.57,642.8Z" fill="#88BE9E"/><line x1="665.73" y1="642.3" x2="658.91" y2="635.89" fill="none" stroke="#263238" stroke-linecap="round" stroke-linejoin="round"/><path d="M728.73,638.53a.48.48,0,0,1-.46-.33l-3.67-9.82a.5.5,0,1,1,.93-.35l3.67,9.83a.5.5,0,0,1-.29.64Z" fill="#88BE9E"/><path d="M729.44,636.12a.49.49,0,0,1-.48-.38.48.48,0,0,1,.36-.6L742,632a.49.49,0,0,1,.6.36.51.51,0,0,1-.36.61l-12.7,3.15Z" fill="#88BE9E"/><path d="M699.46,621a.48.48,0,0,1-.26-.07.5.5,0,0,1-.17-.69l3.4-5.56a.51.51,0,0,1,.86.53l-3.4,5.55A.5.5,0,0,1,699.46,621Z" fill="#88BE9E"/><path d="M702.86,629.57a.53.53,0,0,1-.24-.06l-12.38-6.84a.49.49,0,0,1-.19-.68.49.49,0,0,1,.67-.19l12.38,6.83a.51.51,0,0,1,.2.68A.49.49,0,0,1,702.86,629.57Z" fill="#88BE9E"/><path d="M706.56,640.4a.52.52,0,0,1-.17,0l-11.36-4a.5.5,0,1,1,.33-.94l11.37,4a.5.5,0,0,1,.3.64A.48.48,0,0,1,706.56,640.4Z" fill="#88BE9E"/><path d="M705,636a.57.57,0,0,1-.25-.06.49.49,0,0,1-.18-.68l7.26-12.81a.49.49,0,0,1,.68-.18.5.5,0,0,1,.19.68l-7.26,12.8A.51.51,0,0,1,705,636Z" fill="#88BE9E"/><path d="M694.94,611.13A1.1,1.1,0,1,0,696,610,1.1,1.1,0,0,0,694.94,611.13Z" fill="#263238"/><path d="M701.85,614.88a1.11,1.11,0,1,0,1.11-1.1,1.11,1.11,0,0,0-1.11,1.1Z" fill="#88BE9E"/><path d="M689.38,622.23a1.11,1.11,0,1,0,1.1-1.1h0a1.09,1.09,0,0,0-1.09,1.09Z" fill="#263238"/><path d="M711.16,622.66a1.1,1.1,0,1,0,1.1-1.1,1.1,1.1,0,0,0-1.1,1.1Z" fill="#88BE9E"/><path d="M693.51,635.71a1.1,1.1,0,1,0,1.11-1.08h0A1.09,1.09,0,0,0,693.51,635.71Z" fill="#88BE9E"/><path d="M658.23,636.16a1.11,1.11,0,1,0,1.1-1.11,1.11,1.11,0,0,0-1.1,1.11Z" fill="#263238"/><path d="M731.65,625.65a1.1,1.1,0,1,0,1.1-1.1,1.1,1.1,0,0,0-1.1,1.1Z" fill="#88BE9E"/><path d="M724.15,628.23a1.11,1.11,0,1,0,1.1-1.1,1.11,1.11,0,0,0-1.1,1.1Z" fill="#88BE9E"/><path d="M741,632.47a1.11,1.11,0,1,0,1.12-1.09h0A1.11,1.11,0,0,0,741,632.47Z" fill="#88BE9E"/><path d="M570.86,642.44c-.58-5.36,3.78-11.13,9.31-11.4,4.94-.24,10.39,3.15,14.52.34,3.37-2.25,3.45-7,3.83-11a19.77,19.77,0,0,1,4.12-11.15c2.65-3,7.07-4.72,10.85-3.37,7.61,2.8,8.08,15.29,15.86,17.59,5.39,1.58,11-2.88,16.54-1.89,6.75,1.21,9.81,8.69,15,12.36.54.38,2.81,2,5.39,3.89,2.17,1.58,4.57,3.36,6.38,4.73Z" fill="#6B9EA4"/><path d="M570.86,642.44c-.58-5.36,3.78-11.13,9.31-11.4,4.94-.24,10.39,3.15,14.52.34,3.37-2.25,3.45-7,3.83-11a19.77,19.77,0,0,1,4.12-11.15c2.65-3,7.07-4.72,10.85-3.37,7.61,2.8,8.08,15.29,15.86,17.59,5.39,1.58,11-2.88,16.54-1.89,6.75,1.21,9.81,8.69,15,12.36.54.38,2.81,2,5.39,3.89,2.17,1.58,4.57,3.36,6.38,4.73Z" fill="#fff" opacity="0.4" style="isolation:isolate"/><path d="M634,642.5a.41.41,0,0,1-.16,0,.49.49,0,0,1-.32-.63l4.29-12.48a.5.5,0,0,1,.63-.31.51.51,0,0,1,.31.64l-4.28,12.47A.49.49,0,0,1,634,642.5Z" fill="#88BE9E"/><path d="M618.93,642.83a.5.5,0,0,1-.47-.33l-8.87-24a.5.5,0,0,1,.94-.35l8.86,24a.5.5,0,0,1-.29.65Z" fill="#88BE9E"/><path d="M586.74,642.83a.48.48,0,0,1-.34-.14l-5.26-4.92a.5.5,0,0,1,0-.71.51.51,0,0,1,.71,0l5.26,4.93a.5.5,0,0,1,0,.71A.48.48,0,0,1,586.74,642.83Z" fill="#88BE9E"/><path d="M635.21,639.54a.51.51,0,0,1-.47-.33l-2.82-7.54a.5.5,0,0,1,.29-.64.5.5,0,0,1,.65.29l2.82,7.54a.52.52,0,0,1-.3.65A.47.47,0,0,1,635.21,639.54Z" fill="#88BE9E"/><path d="M635.76,637.69a.5.5,0,0,1-.12-1l9.78-2.43a.5.5,0,0,1,.24,1l-9.78,2.42Z" fill="#88BE9E"/><path d="M612.69,626.07a.48.48,0,0,1-.26-.07.5.5,0,0,1-.17-.69l2.63-4.27a.51.51,0,0,1,.69-.16.49.49,0,0,1,.16.69l-2.62,4.27A.51.51,0,0,1,612.69,626.07Z" fill="#88BE9E"/><path d="M616,635.09a.52.52,0,0,1-.31-.1l-10.23-7.69a.51.51,0,0,1-.1-.7.5.5,0,0,1,.7-.1l10.24,7.69a.5.5,0,0,1,.09.7A.47.47,0,0,1,616,635.09Z" fill="#88BE9E"/><path d="M618.15,641a.45.45,0,0,1-.16,0l-8.76-3.09a.5.5,0,0,1,.33-.94l8.76,3.08a.51.51,0,0,1-.17,1Z" fill="#88BE9E"/><path d="M617,637.57a.45.45,0,0,1-.25-.07.5.5,0,0,1-.19-.68L622.1,627a.5.5,0,1,1,.87.49l-5.58,9.85A.5.5,0,0,1,617,637.57Z" fill="#88BE9E"/><path d="M609.21,618.35a.85.85,0,0,0,1.7,0,.86.86,0,0,0-.84-.87h0A.85.85,0,0,0,609.21,618.35Z" fill="#88BE9E"/><path d="M614.53,621.23a.85.85,0,1,0,.85-.85.85.85,0,0,0-.85.85Z" fill="#88BE9E"/><circle cx="605.79" cy="626.9" r="0.85" fill="#88BE9E"/><circle cx="622.53" cy="627.23" r="0.85" fill="#88BE9E"/><path d="M608.11,637.27a.85.85,0,1,0,.85-.85.85.85,0,0,0-.85.85Z" fill="#88BE9E"/><path d="M581,637.6a.85.85,0,1,0,.85-.85h0A.85.85,0,0,0,581,637.6Z" fill="#88BE9E"/><path d="M637.41,629.57a.85.85,0,1,0,.85-.85.85.85,0,0,0-.85.85Z" fill="#88BE9E"/><path d="M631.7,631.51a.85.85,0,1,0,.85-.85.85.85,0,0,0-.85.85Z" fill="#88BE9E"/><path d="M644.69,634.77a.85.85,0,1,0,.85-.85.85.85,0,0,0-.85.85Z" fill="#88BE9E"/><path d="M777.53,642.37h-687a.5.5,0,0,1-.5-.5.5.5,0,0,1,.5-.5h687a.5.5,0,0,1,.5.5A.51.51,0,0,1,777.53,642.37Z" fill="#88BE9E"/></svg>