<svg id="e20e14bb-9b47-493b-af5e-db9d0cf7a349" data-name="Layer 1" xmlns="http://www.w3.org/2000/svg" width="300" viewBox="0 0 865.76 682.89"><path d="M239.54,98.28l-1.79-30.66a11.83,11.83,0,0,0-2.6-6.75L216.91,38.13a10.56,10.56,0,0,1,1.78-15l2.65-2.05a10.56,10.56,0,0,1,15.2,2.44l8.93,13.21a3,3,0,0,0,3.93.92h0a3,3,0,0,0,1.45-2l2.79-13a1.77,1.77,0,0,1,1.73-1.4h0a1.77,1.77,0,0,1,1.77,1.85l-.76,17.64a29.13,29.13,0,0,1-2.89,11.47h0a14.34,14.34,0,0,0-1.29,8.31l5,34.75Z" fill="#f9b499"/><path d="M415.45,221.67s-28.65,29.56-41.94,31.75l-28-19.36s29.14-8.24,47.08-38.13Z" fill="#f9b499"/><polygon points="506.23 621.47 506.23 633.5 529.48 645.88 529.48 620.38 506.23 621.47" fill="#f9b499"/><path d="M477.52,661.21s3.83-15.68,23.79-16.77v-7.93s.69-8,8.18-5.85a11.84,11.84,0,0,1,3.43,1.66,61.51,61.51,0,0,1,9.45,7.75s5.47-6.4,9.57,5.69a96.59,96.59,0,0,1,3.55,15.45Z" fill="#6B9EA4"/><rect x="477.52" y="661.21" width="57.97" height="4.28" fill="#2f2e41"/><polygon points="429.85 621.47 429.85 647.03 450.72 652.03 450.72 623.69 429.85 621.47" fill="#f9b499"/><path d="M400.32,661.21s2.21-14,23.61-17l.71-8.82a5.22,5.22,0,0,1,6.3-4.69l2.67.57a9.74,9.74,0,0,1,7.61,8.27l.75,5.81h13.4l3.56,15.9Z" fill="#6B9EA4"/><rect x="400.32" y="661.21" width="58.61" height="4.28" fill="#2f2e41"/><path d="M473.24,338.26s1.46,25.45,14.22,40.39l11.3,170.27,4,73.28s9.48,6.56,29.53,2.19c0,0,13.86-53.23,9.48-126.88,0,0-4-43.39-2.19-54.69,0,0,7.46-105.3,6.28-122.65C545.87,320.17,502.77,339.44,473.24,338.26Z" fill="#2f2e41"/><path d="M473.24,338.26s1.46,25.45,14.22,40.39l11.3,170.27,4,73.28s9.48,6.56,29.53,2.19c0,0,13.86-53.23,9.48-126.88,0,0-4-43.39-2.19-54.69,0,0,7.46-105.3,6.28-122.65C545.87,320.17,502.77,339.44,473.24,338.26Z" opacity="0.2"/><path d="M476.18,474.39a10,10,0,0,1,.1-2.83c.74-8.21,4.74-48.24,13.64-55.74l-2.46-37.17s-12-13.69-14.22-40.39c0,0-15.4.13-23.23-3.59l-11,84.45s-3.65,31.36-3.28,50.32l-10.58,152.4L451.36,631s8.39-6.2,16.77-66C468.13,565,479.12,489.19,476.18,474.39Z" fill="#2f2e41"/><path d="M383.45,193.14s29.27,32.13,33.09,32.67c0,0,7.93-7.38,9.85-2.73l11.76,104.73s21.68,25.8,84.63,3.39l39-17.06s-9-99.26-9.57-111.84c0,0,.45-4.49,4.61-4.11a28,28,0,0,0,4,.15l8.63-.42s4.92-6,5.74-20V153.08s-40.24-28.2-86-22.44c0,0-46.05-1.35-71.21,27.09Z" fill="#6B9EA4"/><path d="M457.56,112.32l.82,23.79s-8.2,9.57,8.48,11.07c0,0,14.74,1.77,23.54-5.83a7.69,7.69,0,0,0,2.36-3.57c.58-2,.43-4.56-3.48-6.05L486,108.63Z" fill="#f9b499"/><path d="M425.34,221.72l-.63-.1c5.67-34-7-63.49-7.09-63.78l.58-.26C418.33,157.88,431,187.54,425.34,221.72Z" fill="#2f2e41"/><path d="M554.6,198.54c-15.48-27.46-11.53-60.78-11.49-61.11l.63.08c0,.33-4,33.44,11.42,60.72Z" fill="#2f2e41"/><path d="M526.48,289.1l-.57-.27c12.14-25.36,15.52-57.55,15.55-57.87l.64.07C542.07,231.35,538.67,263.64,526.48,289.1Z" fill="#2f2e41"/><path d="M315.38,150.06s-10.4-4.6.81-20.21c0,0,14.49-23.82,27.07-17.26,0,0,4.65,2.1,4.65,6.52,0,0,13.38-6.31,22.17,1.65a15.42,15.42,0,0,1,3.43,4.65c2.52,5.15,8.68,20.08,3.5,34.63a30.48,30.48,0,0,0,3.7,27.5,50.77,50.77,0,0,0,9.56,10.25A18.32,18.32,0,0,1,394,202.6a7.72,7.72,0,0,1-7.25,11.19,22.25,22.25,0,0,1-7.9-1.94s8.75,7.93,2.19,13.13c0,0-4.38,5.19-17.23-5.47,0,0-1.09,15-12.85,10.12L334,216.5h-2.73l-22.7-10.94L304.71,202a5.35,5.35,0,0,1,4.1-4.1s-12.31,1.09-13.67-3.28c0,0-7.39-8.59,5.19-17.8,0,0-6.22-.69-9.61-3.42a4.87,4.87,0,0,1-.27-7.24c1.75-1.72,5.11-3.72,11.52-4.77C302,161.4,309.1,160.72,315.38,150.06Z" fill="#2f2e41"/><path d="M240.26,113.6,246.1,204s1.82,29.17-2.92,51.05L216.57,410.74s11.3,28.8,46.3,48.85a1119.49,1119.49,0,0,0,29-132.34s.19-65.45,12-117.86c0,0,4.1-.69,4.92-3.69L296,195.93l-1.31,1.83s-13.25-10-16.71-29.84l-11.85-55.6Z" fill="#6B9EA4"/><polygon points="232.06 98.65 233.16 117.06 269.07 117.06 263.42 90.44 232.06 98.65" fill="#6B9EA4"/><polygon points="232.06 98.65 233.16 117.06 269.07 117.06 263.42 90.44 232.06 98.65" opacity="0.2"/><path d="M351.71,234.06s18.71,10.79,26,19.54l40.19,37.55s15.95,13.55,2.83,29c0,0-14.59,15.26-19.33,18.09s-16-21.59-16-21.59l3.44-2.91-21.3-13.49,27,141.46s-24.61-74.38-44.94-88.23l-2.1-68.5Z" fill="#6B9EA4"/><path d="M335.33,302.82l10.16-20.45q-1.74-13.8-4.2-28.55-2.35-14-5.08-27c-1.8,3-5.88,7.46-11.92,11.91-7.17,5.27-16.76,9.19-26.42,3.74q-1.25,9.86-2.3,20.17-1.29,12.81-2.12,25A316,316,0,0,0,335.33,302.82Z" fill="#2f2e41"/><path d="M328,323.24l7.38-20.42S312,296,293.45,287.67L291.52,322Z" fill="#f9b499"/><path d="M332.05,621.47s-13.4-78.75-23.79-102.81c0,0-11.21-29-12-37.19l27.07-4.92s29.53,64.26,24.34,152.58l-2.46,4.92Z" fill="#f9b499"/><path d="M310.72,658.93s3-21.32,20.24-22.69c0,0-9.37-15.34,3.82-14.77,0,0,5.75,2.55,9.3,10,0,0,3.83-8.11,8.48,2.55,0,0,5.47,16.13,4.65,24.88Z" fill="#6B9EA4"/><rect x="310.72" y="658.93" width="46.57" height="6.56" fill="#2f2e41"/><path d="M371.65,470.3l26.85-13.71s47.5,64.84,63.13,145.49l-7.72,7.36-9.11-7.66s-31.14-75-51.38-98.26a64.64,64.64,0,0,1-5.92-8Z" fill="#f9b499"/><path d="M478.34,614.91,465,600s-5.28-.82-6.1,4.69c0,0-16.14-9.79-15.22-.86,0,0-.19,9.11,5.1,14,0,0-10.57,13.49-11.3,26.61,0,0,13.49,5.47,21.42-1.46C458.93,643,476.7,622.75,478.34,614.91Z" fill="#6B9EA4"/><path d="M436.93,647.4l.58-3s11.85,6.2,21.42-1.46c0,0,15-15.86,19.41-28.07,0,0,4,1.28,3.47,6.56,0,0-14.95,23.34-23.88,28.26,0,0-5.05,3.52-17.95,1.86A3.55,3.55,0,0,1,436.93,647.4Z" fill="#2f2e41"/><path d="M345.49,282.37s3.81,35.42,3.43,50.63l-15.66-1.79s-1.48.07-1.82.79c0,0-3.08-5.05-3.49-8.76l7.38-20.42Z" fill="#6B9EA4"/><path d="M345.49,282.37s3.81,35.42,3.43,50.63l-15.66-1.79s-1.48.07-1.82.79c0,0-3.08-5.05-3.49-8.76l7.38-20.42Z" fill="#fff" opacity="0.2"/><path d="M575.14,153.06,588,156.34s21.06-29,27.07-86.68L604.32,41a2.47,2.47,0,0,1,1.09-3h0a2.48,2.48,0,0,1,3.28.78l8,12,10.87-18.29a7.6,7.6,0,0,1,12.4-.94l10.08,12.26a7.6,7.6,0,0,1-.49,10.2L630.65,72.94s-1.91,82.58-19.14,104.19c0,0-5.84,10.09-38.33,12.56,0,0,2-6.55,2-17.49Z" fill="#f9b499"/><path d="M457.82,119.73l-.27-6.16,28.58-3.83.51,3.41S477.77,123.84,457.82,119.73Z" fill="#f7a389"/><ellipse cx="469.41" cy="81.35" rx="27.16" ry="37.76" fill="#f9b499"/><ellipse cx="443.52" cy="82.61" rx="6.38" ry="8.2" fill="#f9b499"/><path d="M442.7,74.47a6.35,6.35,0,0,0-2.05.82s-15.54-26.23,5.24-34.61c0,0,16.78-6.93,29.17-5.84,0,0-1.48-5.91-.09-10a2.36,2.36,0,0,1,4.54.23,21.14,21.14,0,0,1-.07,8s3-5.56,7.34-6.28a2,2,0,0,1,2.3,1.8c.15,1.8-.55,4.73-5.27,7.76,0,0,16.69-1.64,17.51,15.59,0,0,.47,9.62-1.69,25.18,0,0-.3,21.27-6.83,23.48a48.8,48.8,0,0,0,3.31-26.15,4.21,4.21,0,0,0-3.16.41s-2.23-3.87-2.05-14.46A1.9,1.9,0,0,0,488,58.68a14.78,14.78,0,0,0-2.42,2S473,72.81,471.92,67.2c0,0-1.32-2.37,3.54-8.66a.69.69,0,0,0,0-.86c-.49-.62-1.72-1.23-4.28,2.09a19.26,19.26,0,0,1-1.67,1.93c-3.31,3.33-13.56,13-16.19,8,0,0-2.52-3.15,2.36-12.35a1.44,1.44,0,0,0-1.87-2A12.32,12.32,0,0,0,449.9,59s-6.45,8.72-4.78,19.69C445.12,78.69,443.29,79.15,442.7,74.47Z" fill="#2f2e41"/><ellipse cx="494.94" cy="82.61" rx="6.38" ry="8.2" fill="#f9b499"/><path d="M283.68,262l-8.47-10.48s0-26.9,20.84-55.57l12.81,9.77s-.23,2.41-4.94,3.69l-6,33.09c-1.84,13.67-3,25.63-3.82,35.41-.82,10-1.26,18.19-1.51,23.54-.43,9.53-.63,18.2-.68,25.82-3.54-6.3-7-13-10.56-19.9-5.44-10.52-11.18-22.21-12.41-26.86Z" opacity="0.2"/><path d="M349.28,282.4l9.84-6.83-8.2-45.94L334,216.5s13.68,58.25,14.77,107.19l.82,29.81s8.2-35.82,15.31-50.59Z" fill="#6B9EA4"/><path d="M349.28,282.4l9.84-6.83-8.2-45.94L334,216.5s13.68,58.25,14.77,107.19l.82,29.81s8.2-35.82,15.31-50.59Z" opacity="0.2"/><path d="M405.65,338.26l-18.23,7.58s-8.75-9.57-11.3-21.24l11.46-10.84S395.81,333.6,405.65,338.26Z" fill="#6B9EA4"/><path d="M405.65,338.26l-18.23,7.58s-8.75-9.57-11.3-21.24l11.46-10.84S395.81,333.6,405.65,338.26Z" opacity="0.2"/><path d="M318.65,189.69S309,209.3,303.83,209.3c-1.11,4.94-2.12,10.16-3.1,15.47q-1.68,9.15-2.86,17.71a23,23,0,0,0,11.19,2.68c6.87-.32,16.28-4,26.43-17.24,0,0-4.65-3.24-4.81-8.87a11.66,11.66,0,0,1,.06-1.32c.28-3.19,1.63-16.81,4.59-23.38Z" fill="#f9b499"/><path d="M294.59,482.81l-21-64S288,352,291.85,327.25l-.33-5.29L328,323.24s1.37,11.39,16.41,22.6a163.14,163.14,0,0,1,31.89,49.26s17.87,39.06,22.25,61.49c0,0-8.21,10.66-29.53,14.21,0,0-21.56-47-48.38-61,0,0-.3,46.76,7.36,65.35C328,475.18,317.56,488.25,294.59,482.81Z" fill="#2f2e41"/><path d="M378,327.25l-14.54,7.42-30.24-3.46a2,2,0,0,0-2.21,2h0a2,2,0,0,0,1.42,1.9l9.42,2.8-13.27,3.82a5.71,5.71,0,0,0-3,9l6.76,8.87a5.71,5.71,0,0,0,7.17,1.6L364.86,348l20.51-6.36A47.67,47.67,0,0,1,378,327.25Z" fill="#f9b499"/><path d="M315.38,195.93l3.27-6.24,16.84,6.24S330,202.5,315.38,195.93Z" fill="#f7a389"/><ellipse cx="338.3" cy="166.49" rx="33.26" ry="22.3" transform="translate(24.97 376.22) rotate(-60)" fill="#f9b499"/><ellipse cx="315.38" cy="161.4" rx="6.7" ry="5.21" transform="translate(49.21 395.21) rotate(-68.4)" fill="#f9b499"/><ellipse cx="359.12" cy="176.83" rx="6.7" ry="5.21" transform="translate(62.5 445.63) rotate(-68.4)" fill="#f9b499"/><path d="M342.92,136s-7.58,23.36-16.47,9.55c0,0-5.54,6.82-10.63,4.71a6.15,6.15,0,0,1-1.19-.69c-1.95-1.43-6.77-6-2.06-13.57,0,0,16.2-31.34,30.69-23.41a8.55,8.55,0,0,1,4.65,6.52s18.38-8.23,25.6,6.3l-8.1,36s-9.3,5.06-9.57-11.07C355.84,150.33,345.3,169.25,342.92,136Z" fill="#2f2e41"/></svg>