<svg id="bdd218a0-1035-4e19-bf8d-c909e1c516a0" data-name="Layer 1" xmlns="http://www.w3.org/2000/svg" width="300" viewBox="0 0 865.76 682.89"><path d="M775.6,618.06s-24.86,37.73-158,21.55c0,0-34.06-3-79.88-13.46,0,0-85.86-18.2-171-.69,0,0-186.34,55.6-227.77-3,0,0-14.89-24.52-32.72-34.61a44.32,44.32,0,0,0-4.39-2.12,75.64,75.64,0,0,1-12-6.55,53.27,53.27,0,0,1-20.26-26,55.31,55.31,0,0,1-3-12.34c-3-24.53-3-74.15,32.88-124.07a331.42,331.42,0,0,1,38.94-43,189.55,189.55,0,0,0,21-22.4c14.3-18.06,35.77-48.78,37.72-72.35.08-1.08.09-2.14.08-3.21-.09-17.75,1.36-184.51,88.25-170.48,0,0,30.59,4.71,53.93,12.18,0,0,60.2,22.4,113.39-28.46,0,0,86.8-84.47,129.26-44.8,0,0,19.32,11.86,36.44,35.72a132.57,132.57,0,0,1,24.13,68.83c1.7,26.18,10.58,84.71,55.36,110.91,0,0,70.75,20.66,50.54,129.9,0,0-14.15,64.77,29.65,109.24,0,0,17.2,24.69,21.16,54.37C802.34,574.66,798.26,598.8,775.6,618.06Z" fill="#6B9EA4"/><path d="M775.6,618.06s-24.86,37.73-158,21.55c0,0-34.06-3-79.88-13.46,0,0-85.86-18.2-171-.69,0,0-186.34,55.6-227.77-3,0,0-14.89-24.52-32.72-34.61a44.32,44.32,0,0,0-4.39-2.12,75.64,75.64,0,0,1-12-6.55,53.27,53.27,0,0,1-20.26-26,55.31,55.31,0,0,1-3-12.34c-3-24.53-3-74.15,32.88-124.07a331.42,331.42,0,0,1,38.94-43,189.55,189.55,0,0,0,21-22.4c14.3-18.06,35.77-48.78,37.72-72.35.08-1.08.09-2.14.08-3.21-.09-17.75,1.36-184.51,88.25-170.48,0,0,30.59,4.71,53.93,12.18,0,0,60.2,22.4,113.39-28.46,0,0,86.8-84.47,129.26-44.8,0,0,19.32,11.86,36.44,35.72a132.57,132.57,0,0,1,24.13,68.83c1.7,26.18,10.58,84.71,55.36,110.91,0,0,70.75,20.66,50.54,129.9,0,0-14.15,64.77,29.65,109.24,0,0,17.2,24.69,21.16,54.37C802.34,574.66,798.26,598.8,775.6,618.06Z" fill="#fff" opacity="0.7"/><path d="M775.6,618.06s-24.86,37.73-158,21.55c0,0-34.06-3-79.88-13.46,0,0-85.86-18.2-171-.69,0,0-186.34,55.6-227.77-3,0,0-14.89-24.52-32.72-34.61a44.32,44.32,0,0,0-4.39-2.12,75.64,75.64,0,0,1-12-6.55,53.27,53.27,0,0,1-20.26-26H799.46C802.34,574.66,798.26,598.8,775.6,618.06Z" opacity="0.2"/><ellipse cx="531.39" cy="590.67" rx="97.76" ry="16.6" fill="#bcbec0"/><ellipse cx="530.57" cy="590.6" rx="87.05" ry="11.62" fill="#d1d3d4"/><path d="M256.08,555.17v6.48l1.16,12.26,13.67-3.77.94-12.81S258.51,555.7,256.08,555.17Z" fill="#f9b499"/><polygon points="323.87 554.65 326.55 572.73 338.11 576.41 343.15 573.91 341.17 553.16 323.87 554.65" fill="#f9b499"/><path d="M268,342.51a196.14,196.14,0,0,1-29.2-17.23c-11.36-12.89,12.63-60.9,12.63-60.9,8.6-20,41.37-24.33,41.37-24.33h12.46c5.31-1.56,20.46,1.84,20.46,1.84C351,238.1,370,283.59,370,283.59l25.27-18.7,7.83,7.83c-4.29,10.61-25.76,33.61-25.76,33.61-16.26,9.61-32.75-10.94-33.58-12l0,0-72,9.75-1.77-7.83c-1,4.29-8.85,16.17-8.85,16.17l9.14,7.14" fill="#000000"/><path d="M274.67,245s16.66,29.22-3,59.05l-5.05,53.32-7.08,94L248.92,553.45s19.71,5.82,37.4,3.54c0,0,18.69-137.21,19.45-151.61,0,0,4.8,138.47,6.07,151.11,0,0,25.77,4.54,38.91-1.27l-3-132.91-3.29-86.67-.75-41.35s-7.58-41-17.94-52.4l-6.33-1.21,3.8,18.65s-.76,18.19-17.69,17.18c0,0-10.61,2.53-16.17-13.64l-8.3-20.09Z" fill="#6B9EA4"/><path d="M269.89,296.22l1.77,7.83s11.28-13.91,9.43-35.88C281.09,268.17,275.7,289.4,269.89,296.22Z" opacity="0.2"/><path d="M375.35,306.79a.25.25,0,0,1,.16.47c-15.66,7.21-31-11.9-31.8-12.92l0,0s1.45-26.26.09-29.73a74.14,74.14,0,0,1,6.85,24.06,8.53,8.53,0,0,0,.9,3.1C353.93,296.33,362,309.29,375.35,306.79Z" opacity="0.2"/><path d="M267.8,344.74c3.23.17,6.45.34,9.67.43s6.44.24,9.67.29c6.44.11,12.88.18,19.31-.09s12.87-.53,19.25-1.31c.8-.09,1.61-.16,2.4-.27l2.38-.37c1.59-.26,3.2-.44,4.76-.82s3.16-.61,4.72-1l4.65-1.32A83,83,0,0,1,325.82,345a176.12,176.12,0,0,1-19.33,1.59c-6.46.16-12.93.12-19.38-.19S274.21,345.58,267.8,344.74Z" fill="#fff"/><path d="M267.31,350c3.26.29,6.52.59,9.79.8s6.52.47,9.79.64c6.53.34,13.07.63,19.6.58a167.82,167.82,0,0,0,19.55-.93,76.17,76.17,0,0,0,9.63-1.61,35.4,35.4,0,0,0,9.16-3.37,32.6,32.6,0,0,1-9,3.92,72.66,72.66,0,0,1-9.67,2,152.16,152.16,0,0,1-19.66,1.21c-6.57-.05-13.13-.32-19.66-.86S273.77,351.07,267.31,350Z" fill="#fff"/><path d="M253.66,554.65,256,529.14l2.43-25.5,5-51,5.23-51,2.65-25.47c.9-8.49,1.85-17,2.6-25.48-1.17,17-2.78,34-4.35,51l-5,51-5.29,50.95-2.76,25.46Z" fill="#fff"/><polygon points="346.6 556.63 345.45 530.63 344.43 504.62 342.57 452.6 340.98 400.57 340.28 374.55 339.71 348.53 340.86 374.53 341.88 400.54 343.74 452.56 345.33 504.59 346.03 530.61 346.6 556.63" fill="#fff"/><path d="M305.77,405.38l-1.22-15.83,8,3.19s3.42,54-3.88,92.95Z" opacity="0.2"/><rect x="407.64" y="102.64" width="221.51" height="454" fill="#000000"/><rect x="422.51" y="114.15" width="195.11" height="431.49" fill="#fff"/><polygon points="658.27 102.64 565.83 64.36 561.04 590.75 658.27 556.63 658.27 102.64" fill="#6B9EA4"/><polygon points="572.36 80.93 571.35 186.81 653.22 206.77 653.22 112.52 572.36 80.93" fill="#fff" opacity="0.2"/><polygon points="571.35 203.23 569.58 311.89 653.97 316.44 653.97 220.67 571.35 203.23" fill="#fff" opacity="0.2"/><polygon points="569.58 327.56 568.82 439.75 652.96 429.64 653.97 331.34 569.58 327.56" fill="#fff" opacity="0.2"/><polygon points="568.82 457.18 653.97 443.03 653.97 543.6 568.82 572.15 568.82 457.18" fill="#fff" opacity="0.2"/><rect x="577.49" y="293.44" width="10.61" height="57.36" rx="4.5" fill="#000000"/><rect x="577.49" y="293.44" width="10.61" height="57.36" rx="4.5" opacity="0.4"/><path d="M252.11,208.77s-14.94,3.83-25.66-6.13c-8-7.47,3.19-15.65,9.31-19.28a64.58,64.58,0,0,0,14.18-11.14c9.19-9.73,19.28-26.19,7.53-44.65,0,0-16.09-36-68.56-28,0,0-57.45,6.9-42.89,64.35,0,0,11.1,32.08,54.38,45.53C200.4,209.49,231,218.34,252.11,208.77Z" fill="#6B9EA4"/><path d="M235.7,131l-2.32-3.4a4.29,4.29,0,0,0,.59-6.18l-.87-1a4.29,4.29,0,0,0-5.83-.62l-31.92,24.11c-4.55,4-10.88,3.08-10.88,3.08v0a14.24,14.24,0,0,0-2.46-.23,14.56,14.56,0,1,0,14.55,14.56c0-.44,0-.86-.06-1.28l.06,0v-.08a7.67,7.67,0,0,1,2.94-5.78l20.1-15.74,2.54,3.09a2.37,2.37,0,0,0,3.76-2.87l-2.13-3,6.07-5.48,2.31,3.25A2.16,2.16,0,0,0,235.7,131ZM178,170.46a6.14,6.14,0,1,1,6.14-6.14A6.14,6.14,0,0,1,178,170.46Z" fill="#fff"/><path d="M319.4,354.14h2.93v-3.4a10.46,10.46,0,0,0-10.46-10.47H295.34a10.57,10.57,0,0,0-10.57,10.57v3.3h3.14a10.57,10.57,0,0,1,10.68-10.57l10.46.1A10.47,10.47,0,0,1,319.4,354.14Z" fill="#000000"/><path d="M284.77,346.37l5.55,1.68a3.8,3.8,0,0,1,2.13,1.59c1.08,1.75,3.83,4.67,9.34,2a11.28,11.28,0,0,0,3-2.17c1.89-1.89,4.38-5.07-1.42-4.28a10.5,10.5,0,0,1-3.16-.61,1.75,1.75,0,0,1,.67-3.37h3.68a.5.5,0,0,0,.39-.82c-1-1.26-3.77-3.36-10.67-1.25l-3.4-2.41A28.11,28.11,0,0,1,284.77,346.37Z" fill="#f9b499"/><path d="M269.74,319.18l21,16.42a.71.71,0,0,1,.26.74c-1.69,6.38-7.05,10.89-8.41,12a.73.73,0,0,1-.68.11c-4.72-1.73-10.06-4.06-14.3-6.07" fill="#000000"/><path d="M305.76,348.44a6,6,0,0,1-1.76.38,8.27,8.27,0,0,1-1.79-.06,6.13,6.13,0,0,1-1.74-.53A2.9,2.9,0,0,1,299.1,347a7.5,7.5,0,0,0,1.63.48c.54.11,1.08.21,1.64.28A26,26,0,0,1,305.76,348.44Z" fill="#f7a48b"/><path d="M302.64,351.19a2.94,2.94,0,0,1-1.32.26,4.69,4.69,0,0,1-1.29-.2,3.88,3.88,0,0,1-2.12-1.53,9.09,9.09,0,0,1,1.26.24c.4.1.77.22,1.16.33A16.57,16.57,0,0,1,302.64,351.19Z" fill="#f7a48b"/><path d="M337,360l-.55,10.19-.18,3.19-1.47,27.16a3.69,3.69,0,0,1-3.63,3.48l-54.11.56h-.16a3.6,3.6,0,0,1-3.64-3.27L270,368.3l-.5-5.17a8.19,8.19,0,0,1,8.15-9H331.4A5.59,5.59,0,0,1,337,360Z" fill="#6B9EA4"/><path d="M337,360l-.55,10.19-.18,3.19-1.47,27.16a3.69,3.69,0,0,1-3.63,3.48l-54.11.56h-.16a3.6,3.6,0,0,1-3.64-3.27L270,368.3l-.5-5.17a8.19,8.19,0,0,1,8.15-9H331.4A5.59,5.59,0,0,1,337,360Z" fill="#fff" opacity="0.2"/><path d="M336.44,368.3v5.12H282.23a7.91,7.91,0,0,0-5.22,1.85c-1.69,1.5-3.2,4.12-2.49,8.67l2.53,20.68h-.16a3.6,3.6,0,0,1-3.64-3.27L270,368.3Z" fill="#fff" opacity="0.2"/><ellipse cx="304.55" cy="370.95" rx="4.71" ry="6.14" fill="#fff"/><ellipse cx="304.55" cy="370.95" rx="1.08" ry="1.86" fill="#6B9EA4"/><path d="M258.89,564.54s-2.45-5.83-5.23,0c0,0-3.49,8.9-2.79,14.79l34.19,6.84s11.08.94,7.31-7.78a24.93,24.93,0,0,0-13.2-6.84,12.11,12.11,0,0,1-7.09-7.07.73.73,0,0,0-1.36,0C269.35,567.81,266,572.4,258.89,564.54Z" fill="#000000"/><path d="M329.44,570s-3.69-5.13-5.1,1.18c0,0-1.4,9.45.62,15l34.84-1s11-1.57,5.38-9.22a25.05,25.05,0,0,0-14.41-3.7,12.07,12.07,0,0,1-8.49-5.29.73.73,0,0,0-1.33.3C340.37,570.82,338.09,576.05,329.44,570Z" fill="#000000"/><path d="M420.09,280.47a4.15,4.15,0,0,0-5.59-2.29L408,281.11a1.23,1.23,0,0,1-1.56-.44l-8.93-13.53,6.48-4.52a3.9,3.9,0,0,0-4.16-6.59l-6.35,3.62-24.5-38c-7.79-9.22-4.51-21.41-4.51-21.41a29,29,0,1,0-34.63,16.88c14.17,3.83,17.3,9.38,17.3,9.38l47.18,72.67a10.48,10.48,0,0,0,12,4.38,6.73,6.73,0,0,0,1.89-.9,10.07,10.07,0,0,0,3.83-4.09c1.93-3.86.93-8.19.59-9.4a.45.45,0,0,1,.22-.53l5.41-3A4.16,4.16,0,0,0,420.09,280.47Zm-89.21-85.66a13.36,13.36,0,1,1,13.35-13.36A13.36,13.36,0,0,1,330.88,194.81Z" fill="#6B9EA4"/><path d="M412,298.51a10.07,10.07,0,0,1-3.83,4.09,6.73,6.73,0,0,1-1.89.9,10.48,10.48,0,0,1-12-4.38L347.1,226.45s-3.13-5.55-17.3-9.38a29,29,0,0,1-19.42-38.13s-3,33.78,22.64,35.16c0,0,8.39-.78,16.54,11.93l44.17,68a13.59,13.59,0,0,0,17.95,4.57l.29-.17Z" opacity="0.2"/><path d="M393.44,259.65s-5.56-2.58-8.13-6.48a6,6,0,0,1,4.77-9.23,13.35,13.35,0,0,1,8.35,2.38s5,3.47,4.62,9.44c0,0-1.48-.75-4.43.94Z" fill="#f9b499"/><polygon points="555.16 64.36 565.83 64.36 561.04 590.75 550.59 590.75 555.16 64.36" fill="#6B9EA4"/><polygon points="555.16 64.36 565.83 64.36 561.04 590.75 550.59 590.75 555.16 64.36" opacity="0.4"/><rect x="579.94" y="293.44" width="10.61" height="57.36" rx="4.5" fill="#000000"/><ellipse cx="585.5" cy="321.07" rx="3.96" ry="11.46" opacity="0.4"/><path d="M294,227.57l-1.17,12.49a4.75,4.75,0,0,0,1,3.48c1.82,2.2,5.49,5.66,9.73,4.25a5.44,5.44,0,0,0,3.88-4.38V230.1Z" fill="#f9b499"/><path d="M299.37,247.2s-7.41-7.34-2.69-9.35c0,0,8.92-3.2,10.78-7.75L294,227.57l-1.17,12.49S292.78,244.59,299.37,247.2Z" fill="#f7a48b"/><ellipse cx="301.56" cy="214.1" rx="15.96" ry="19.3" fill="#f9b499"/><path d="M307.63,203c-6.75,3.63-11.46,1.18-11.46,1.18-6.91-1.85-7.58,1.35-7.58,1.35,1.35,6.9-1.67,7.54-1.67,7.54l-6.47,1s-9.67-10.2,0-14.3c0,0-.42-11.67,12.83-9.78,0,0,7.25-8.3,16.4-.21,0,0,17.37.77,7.32,19.38C317,209.19,314.2,199.44,307.63,203Z" fill="#000000"/><ellipse cx="284.45" cy="216.04" rx="3.79" ry="4.89" transform="translate(-69.91 171.17) rotate(-30)" fill="#f9b499"/></svg>